<svg width="16" height="16" viewBox="0 0 16 16" fill="none" xmlns="http://www.w3.org/2000/svg">
<rect width="16" height="16" rx="5" fill="white"/>
<path d="M11.6682 7.02C11.6692 7.01561 11.6765 6.97363 11.6785 6.96387L12.1709 6.75255C12.1689 6.76036 12.1655 6.76622 12.1631 6.76622C12.1606 6.76622 12.1592 6.76768 12.1597 6.76964C12.1602 6.77208 12.1577 6.77988 12.1543 6.78818C12.147 6.80575 12.1465 6.83552 12.1533 6.84821C12.1563 6.85358 12.1567 6.85943 12.1548 6.86139C12.1528 6.86383 12.1543 6.86383 12.1577 6.86187C12.1606 6.85992 12.1636 6.8609 12.1636 6.86383C12.1636 6.86675 12.166 6.86773 12.1685 6.86627C12.1714 6.8648 12.1733 6.86627 12.1733 6.86968C12.1733 6.87359 12.1748 6.87408 12.1772 6.87115C12.1792 6.86822 12.1841 6.86578 12.188 6.8648C12.2012 6.86236 12.2612 6.83308 12.2612 6.82918C12.2612 6.82186 12.3032 6.78184 12.3188 6.77403C12.3276 6.76915 12.3407 6.75743 12.3481 6.7467C12.3593 6.73108 12.4076 6.69741 12.4076 6.70521C12.4076 6.70912 12.4203 6.69838 12.4437 6.67496C12.4554 6.66276 12.4803 6.64665 12.5057 6.63494C12.5286 6.6242 12.5574 6.60566 12.5701 6.59394C12.5862 6.57881 12.6023 6.57003 12.6267 6.56222C12.6453 6.55636 12.6765 6.54075 12.6965 6.52757C12.7331 6.50366 12.7521 6.49536 12.7848 6.49097C12.8117 6.48658 12.8371 6.48267 12.8488 6.48023C12.8541 6.47925 12.8688 6.47681 12.881 6.47535C12.8932 6.47389 12.9073 6.47145 12.9127 6.46998C12.9181 6.46852 12.9337 6.46705 12.9469 6.46608C12.9605 6.4651 12.9713 6.46364 12.9713 6.46364C12.9713 6.46169 12.9932 6.45778 13.0103 6.45632C13.0211 6.45534 13.0352 6.4529 13.042 6.44997C13.0503 6.44704 13.0552 6.44704 13.0577 6.45095C13.0606 6.45485 13.0616 6.45485 13.0616 6.45095C13.0616 6.44753 13.0669 6.44412 13.0738 6.44314C13.0816 6.44119 13.0845 6.44265 13.0825 6.44607C13.0806 6.449 13.083 6.44851 13.0874 6.4446C13.0918 6.44119 13.0957 6.43972 13.0957 6.44119C13.0957 6.44314 13.1006 6.44216 13.106 6.43875C13.1143 6.43435 13.1157 6.43484 13.1128 6.43972C13.1099 6.44363 13.1109 6.4446 13.1157 6.44119C13.124 6.43631 13.1289 6.43533 13.1689 6.4324L13.2333 6.42703C13.349 6.4163 13.4325 6.41337 13.6008 6.41288C13.7868 6.41239 13.7917 6.41337 13.8414 6.45924C13.859 6.47486 13.8756 6.48804 13.879 6.48804C13.8898 6.48804 13.9137 6.51488 13.9254 6.54075C13.9317 6.55539 13.9425 6.57296 13.9488 6.57979C13.963 6.59638 13.9752 6.62469 13.9717 6.63299C13.9708 6.63689 13.9713 6.63884 13.9737 6.63738C13.9761 6.63591 13.9796 6.64714 13.9815 6.66276L13.9869 6.70278C13.9879 6.70961 13.9898 6.72718 13.9913 6.74182C13.9932 6.75646 13.9957 6.77842 13.9971 6.79062C14.001 6.82283 14.001 6.9219 13.9966 6.94191C13.9947 6.95118 13.9922 6.96095 13.9918 6.96387C13.9874 6.98437 13.9796 6.99657 13.9566 7.01902C13.942 7.03317 13.9303 7.04635 13.9303 7.04879C13.9303 7.0605 13.8844 7.0932 13.8678 7.0932C13.8644 7.0932 13.8512 7.10296 13.8385 7.11468C13.8175 7.1342 13.797 7.14542 13.7878 7.14298C13.7853 7.14249 13.7839 7.14396 13.7839 7.14591C13.7839 7.14835 13.7809 7.1503 13.778 7.15079C13.7702 7.15128 13.7497 7.15518 13.7204 7.16153C13.7082 7.16446 13.6936 7.16787 13.6877 7.16885C13.6814 7.17031 13.6721 7.17226 13.6667 7.17373C13.6614 7.17519 13.6526 7.17715 13.6467 7.17861C13.6413 7.17959 13.6306 7.18398 13.6223 7.18788C13.6145 7.19179 13.6096 7.19276 13.6111 7.18983C13.613 7.18739 13.6086 7.18886 13.6013 7.19325C13.5945 7.19813 13.5886 7.20008 13.5886 7.19813C13.5886 7.19569 13.5838 7.19813 13.5779 7.2035C13.5716 7.20936 13.5691 7.20984 13.5716 7.20545C13.575 7.19959 13.5745 7.19911 13.5686 7.20399C13.5613 7.20984 13.534 7.21765 13.5057 7.22204C13.4964 7.22351 13.4832 7.22595 13.4764 7.22741C13.4608 7.23034 13.4325 7.23425 13.3617 7.24254C13.3539 7.24352 13.3417 7.24547 13.3349 7.24693L13.3105 7.25181L13.2861 7.25669C13.2792 7.25865 13.2719 7.26011 13.269 7.2606C13.2665 7.26157 13.2607 7.26402 13.2568 7.26646C13.2529 7.2689 13.2465 7.27134 13.2421 7.27182C13.2382 7.27231 13.2299 7.27426 13.2241 7.27573C13.2094 7.27963 13.1938 7.28305 13.1787 7.28598L13.1543 7.29086C13.1475 7.29232 13.1279 7.29427 13.1104 7.29574C13.0733 7.29915 13.0347 7.30403 13.024 7.30745C13.023 7.30794 13.0215 7.30794 13.0201 7.30794C13.0186 7.30843 13.0089 7.31135 12.9981 7.31526C12.9874 7.31916 12.9786 7.32112 12.9786 7.31916C12.9786 7.3177 12.9752 7.31916 12.9713 7.32258C12.9674 7.326 12.964 7.32697 12.964 7.32453C12.964 7.32258 12.9605 7.32502 12.9561 7.33039C12.9522 7.33527 12.9498 7.33673 12.9518 7.3338C12.9537 7.3299 12.9488 7.33088 12.94 7.33576C12.9322 7.34064 12.9269 7.34649 12.9283 7.34893C12.9298 7.35137 12.9293 7.35186 12.9264 7.3504C12.9239 7.34893 12.9161 7.3504 12.9098 7.35381C12.9029 7.35723 12.8907 7.36211 12.8829 7.36406C12.8751 7.36601 12.8668 7.36845 12.8639 7.36943C12.859 7.37089 12.8434 7.37431 12.8224 7.37919C12.8044 7.3831 12.7956 7.38505 12.7946 7.38602C12.7936 7.387 12.7917 7.38749 12.7897 7.38798C12.7746 7.39188 12.7473 7.40701 12.737 7.41726C12.7302 7.42409 12.7248 7.42848 12.7248 7.42702C12.7248 7.42555 12.7214 7.428 12.717 7.4319C12.7131 7.43629 12.7072 7.43873 12.7048 7.43727C12.7024 7.43532 12.7004 7.43629 12.7004 7.43873C12.7004 7.44117 12.697 7.44312 12.6931 7.44361L12.6785 7.44556C12.6745 7.44605 12.6711 7.448 12.6711 7.45044C12.6711 7.4524 12.6697 7.45386 12.6677 7.45337C12.6604 7.45191 12.6345 7.46069 12.6165 7.47045C12.6009 7.47875 12.5867 7.49876 12.5872 7.51145C12.5872 7.5134 12.5857 7.51731 12.5833 7.52023C12.5765 7.52902 12.5794 7.57294 12.5877 7.58173C12.5979 7.59246 12.6131 7.59978 12.6301 7.6032C12.6589 7.60808 12.6682 7.61052 12.6853 7.61589C12.695 7.61882 12.7053 7.62321 12.7082 7.62565C12.7112 7.62809 12.7151 7.62907 12.7165 7.6276C12.7185 7.62614 12.719 7.62663 12.718 7.62809C12.7151 7.63199 12.7312 7.64859 12.736 7.64615C12.738 7.64517 12.7395 7.64761 12.7395 7.65152C12.7395 7.65542 12.7419 7.6603 12.7453 7.66225C12.7487 7.66469 12.7492 7.66372 12.7468 7.65981C12.7443 7.65542 12.7473 7.65591 12.7546 7.66079C12.7609 7.66469 12.7805 7.67299 12.798 7.67885C12.8424 7.69349 12.8517 7.69837 12.8737 7.71886C12.8844 7.72911 12.8951 7.73741 12.8971 7.73741C12.8995 7.73741 12.9171 7.74473 12.9371 7.754C12.9605 7.76474 12.982 7.77987 12.9996 7.79646C13.0337 7.83062 13.0508 7.84478 13.0572 7.84478C13.0596 7.84478 13.0606 7.84673 13.0591 7.84966C13.0577 7.8521 13.0591 7.85454 13.0625 7.85454C13.0689 7.85454 13.085 7.87699 13.085 7.88577C13.085 7.88821 13.0874 7.89163 13.0904 7.89309C13.0933 7.89505 13.1026 7.92237 13.1104 7.9541C13.1187 7.98533 13.1289 8.01949 13.1333 8.02925C13.1377 8.03902 13.1406 8.04926 13.1401 8.05122C13.1396 8.05317 13.1421 8.06 13.1455 8.06586C13.1484 8.07171 13.1518 8.08001 13.1523 8.08391C13.1528 8.08782 13.1543 8.09758 13.1562 8.10588C13.1611 8.1293 13.165 8.15322 13.1665 8.17176C13.1675 8.18103 13.1684 8.18884 13.1689 8.18884C13.1694 8.18884 13.1709 8.19519 13.1714 8.20348C13.1723 8.21129 13.1743 8.2313 13.1758 8.24741C13.1831 8.31573 13.185 8.33574 13.1855 8.34843C13.186 8.35624 13.187 8.36209 13.1884 8.36209C13.1899 8.36209 13.1909 8.36942 13.1914 8.3782C13.1914 8.3865 13.1933 8.40358 13.1958 8.41578C13.1977 8.42798 13.2002 8.44408 13.2007 8.45141C13.2011 8.45921 13.2046 8.46751 13.2085 8.46995C13.2143 8.47337 13.2143 8.47434 13.208 8.47434C13.2016 8.47434 13.2016 8.47483 13.208 8.47922C13.2119 8.48166 13.2133 8.4841 13.2109 8.4841C13.2085 8.4841 13.2099 8.48801 13.2133 8.4924C13.2192 8.49923 13.2192 8.49972 13.2138 8.49679C13.208 8.49338 13.208 8.49484 13.2133 8.50411C13.2168 8.51046 13.2202 8.52119 13.2207 8.52803C13.2221 8.53974 13.2251 8.55926 13.2299 8.58659C13.2348 8.61734 13.2368 8.63051 13.2397 8.66468C13.2412 8.68469 13.2436 8.71104 13.2446 8.72324C13.2456 8.73544 13.248 8.76277 13.2495 8.78425C13.2509 8.80572 13.2534 8.8311 13.2543 8.84037C13.2553 8.84964 13.2573 8.87697 13.2592 8.90137C13.2612 8.92529 13.2631 8.95164 13.2641 8.95994C13.2675 8.99508 13.2724 9.03412 13.2743 9.04778C13.2758 9.05559 13.2773 9.06731 13.2778 9.07316C13.2778 9.07951 13.2807 9.08439 13.2836 9.08439C13.2861 9.08439 13.2851 9.08683 13.2812 9.08927C13.2773 9.09171 13.2763 9.09415 13.2792 9.09415C13.2817 9.09415 13.2841 9.10147 13.2836 9.10977C13.2836 9.11855 13.2856 9.1288 13.288 9.1327C13.2948 9.14149 13.2963 9.15369 13.29 9.14978C13.2875 9.14783 13.288 9.15174 13.2909 9.15808C13.2944 9.16394 13.2978 9.17809 13.2987 9.18883C13.2997 9.20688 13.3036 9.24495 13.308 9.28204C13.309 9.28985 13.3114 9.31328 13.3129 9.33329C13.3144 9.35329 13.3168 9.3777 13.3178 9.38697C13.3188 9.39624 13.3212 9.43382 13.3231 9.46994C13.3251 9.50605 13.3271 9.54558 13.3275 9.55778C13.3285 9.56998 13.3305 9.59926 13.3324 9.62367C13.3344 9.64758 13.3363 9.67735 13.3373 9.68955C13.3383 9.70175 13.3402 9.72811 13.3422 9.74812L13.3466 9.79448C13.3466 9.79985 13.3495 9.8057 13.3519 9.80766C13.3549 9.8101 13.3544 9.81156 13.3505 9.81156C13.3466 9.81156 13.3456 9.814 13.3476 9.81742C13.35 9.82083 13.3519 9.83401 13.3524 9.84621C13.3524 9.85841 13.3539 9.87061 13.3554 9.87305C13.3568 9.87549 13.3573 9.88232 13.3568 9.88867C13.3563 9.89453 13.3588 9.90185 13.3627 9.90477C13.3676 9.90917 13.3676 9.9121 13.3637 9.91698C13.3593 9.92234 13.3598 9.92381 13.3641 9.92381C13.369 9.92381 13.369 9.92527 13.3646 9.93064C13.3602 9.93601 13.3602 9.93845 13.3641 9.94089C13.3676 9.94284 13.369 9.94967 13.3676 9.95602C13.3666 9.96236 13.3671 9.96627 13.3695 9.9648C13.3715 9.96383 13.3729 9.96676 13.3729 9.97115C13.3729 9.97603 13.3739 9.99311 13.3759 10.0092C13.3773 10.0253 13.3798 10.0483 13.3812 10.0605C13.3827 10.0727 13.3851 10.1034 13.3866 10.1288C13.3881 10.1542 13.39 10.1859 13.391 10.1995C13.3934 10.2318 13.3983 10.3123 13.4007 10.3606C13.4017 10.3821 13.4042 10.4172 13.4061 10.4387C13.4125 10.5134 13.409 10.5851 13.3964 10.6363C13.3924 10.651 13.3885 10.6666 13.3876 10.6705C13.3856 10.6798 13.3812 10.6851 13.3495 10.7188C13.3349 10.7344 13.3178 10.7559 13.3114 10.7662C13.3041 10.7788 13.2919 10.7891 13.2758 10.7974C13.2621 10.8042 13.2426 10.8179 13.2319 10.8276C13.2216 10.8374 13.2129 10.8442 13.2124 10.8423C13.2124 10.8403 13.2104 10.8433 13.208 10.8486C13.206 10.854 13.1841 10.8691 13.1597 10.8823C13.1353 10.8955 13.1162 10.9072 13.1172 10.9082C13.1221 10.9131 13.0855 10.9438 13.0616 10.955C13.0372 10.9663 13.0054 10.9936 13.0108 10.9985C13.0118 10.9999 13.0069 11.0038 12.9991 11.0072C12.9605 11.0268 12.9381 11.0526 12.9313 11.0853C12.9274 11.1058 12.9259 11.1122 12.9249 11.1122C12.9244 11.1122 12.9234 11.1161 12.9225 11.121C12.9215 11.1254 12.9225 11.1283 12.9244 11.1273C12.9264 11.1258 12.9274 11.1297 12.9269 11.1356C12.9264 11.1415 12.9254 11.1463 12.9249 11.1463C12.9215 11.1463 12.922 11.1639 12.9254 11.1663C12.9283 11.1678 12.9278 11.1717 12.9244 11.1761C12.92 11.1815 12.9205 11.1829 12.9254 11.1829C12.9308 11.1829 12.9308 11.1839 12.9249 11.1878C12.92 11.1907 12.9195 11.1927 12.9234 11.1927C12.9278 11.1927 12.9283 11.1961 12.9249 11.2049C12.922 11.2127 12.922 11.2176 12.9254 11.22C12.9288 11.222 12.9283 11.2249 12.9249 11.2293C12.921 11.2342 12.921 11.2366 12.9249 11.2391C12.9288 11.2415 12.9288 11.2439 12.9249 11.2488C12.921 11.2537 12.921 11.2561 12.9254 11.2586C12.9293 11.2615 12.9288 11.2635 12.9244 11.2664C12.9191 11.2698 12.9191 11.2708 12.9239 11.2708C12.9283 11.2708 12.9288 11.2737 12.9264 11.2791C12.9225 11.2874 12.922 11.2991 12.9249 11.3049C12.9288 11.3128 12.9274 11.3733 12.9234 11.3733C12.9205 11.3733 12.92 11.3747 12.9215 11.3762C12.9234 11.3782 12.92 11.3835 12.9142 11.3884C12.9088 11.3938 12.9054 11.3977 12.9073 11.3977C12.9093 11.3977 12.9073 11.4011 12.9029 11.406C12.8986 11.4104 12.8898 11.4221 12.8834 11.4323C12.8771 11.4421 12.8654 11.4548 12.8576 11.4601C12.8439 11.4704 12.8381 11.4704 12.5275 11.4709L12.5267 11.4709C12.3524 11.4714 12.0474 11.4728 11.8488 11.4738C11.6502 11.4753 11.4803 11.4762 11.472 11.4762C11.4432 11.4758 11.4315 11.4758 11.4232 11.4762H11.2558C11.1685 11.4767 11.086 11.4772 11.0718 11.4777C11.0396 11.4787 10.9923 11.4694 10.9752 11.4582C10.9596 11.4479 10.9489 11.4284 10.945 11.4011C10.9425 11.383 10.9415 11.3079 10.943 11.1659C10.944 11.1063 10.9396 11.0829 10.923 11.0595C10.9176 11.0521 10.9113 11.0473 10.9088 11.0487C10.9064 11.0507 10.9044 11.0497 10.9044 11.0473C10.9044 11.0448 9.70973 11.0429 8.06554 11.0424C6.50383 11.0424 5.20858 11.0419 5.18711 11.0414C5.16564 11.0414 5.14172 11.0424 5.13343 11.0443C5.12562 11.0458 5.11586 11.0478 5.11293 11.0478C5.10951 11.0478 5.10658 11.0497 5.10658 11.0521C5.10658 11.0546 5.10463 11.0551 5.1017 11.0536C5.09926 11.0521 5.09682 11.0531 5.09682 11.0556C5.09682 11.0585 5.09341 11.0609 5.08902 11.0609C5.08511 11.0609 5.08316 11.0629 5.08462 11.0658C5.08609 11.0683 5.0856 11.0707 5.08365 11.0707C5.08121 11.0707 5.07681 11.0751 5.0734 11.0809C5.06949 11.0868 5.06901 11.0897 5.07193 11.0883C5.07486 11.0863 5.07389 11.0907 5.06998 11.098C5.06461 11.1088 5.06364 11.1376 5.06461 11.241C5.06559 11.3699 5.06169 11.4152 5.04753 11.4431C5.04119 11.4553 5.02801 11.468 5.0202 11.4694C5.01727 11.4699 5.00898 11.4719 5.00117 11.4733C4.9753 11.4782 3.458 11.4748 3.22423 11.4689C3.1847 11.468 3.16225 11.4655 3.15737 11.4616C3.15298 11.4577 3.14956 11.4567 3.14956 11.4587C3.14956 11.4665 3.12467 11.4353 3.11784 11.4191C3.11394 11.4099 3.11101 11.4021 3.1115 11.4011C3.11198 11.4006 3.10954 11.3952 3.10613 11.3889C3.09734 11.3728 3.09539 11.3596 3.09588 11.3318C3.0993 11.2215 3.09685 11.0956 3.091 11.0805C3.09051 11.079 3.09002 11.0765 3.09051 11.0746C3.09051 11.0731 3.08465 11.0653 3.07685 11.0575C3.06025 11.0409 3.03731 11.0219 3.03731 11.0248C3.03731 11.0258 3.03048 11.0204 3.02219 11.0121C3.0134 11.0043 3.00413 10.9975 3.00169 10.9975C2.99876 10.9975 2.99827 10.996 2.99974 10.9946C3.00413 10.9897 2.97094 10.9643 2.93971 10.9487C2.92507 10.9414 2.90603 10.9267 2.89774 10.9165C2.88895 10.9052 2.86943 10.8911 2.85089 10.8813C2.83234 10.8721 2.81282 10.8579 2.80403 10.8467C2.79574 10.8364 2.7767 10.8213 2.76206 10.813C2.73766 10.7989 2.6708 10.7388 2.67958 10.7388C2.68154 10.7388 2.68105 10.7369 2.67812 10.7349C2.66982 10.7296 2.63713 10.6768 2.63957 10.6734C2.64103 10.672 2.64054 10.6715 2.63859 10.6729C2.6342 10.6764 2.61272 10.6437 2.60736 10.6251C2.60248 10.6075 2.59711 10.5504 2.59662 10.5095C2.59662 10.4772 2.60492 10.3294 2.61077 10.2654C2.61614 10.2025 2.61712 10.1942 2.62004 10.1727C2.62248 10.1546 2.62541 10.1273 2.62834 10.0907C2.62883 10.0878 2.63127 10.0849 2.6342 10.0849C2.63713 10.0849 2.63615 10.0824 2.63225 10.08C2.6259 10.0756 2.6259 10.0751 2.63225 10.0751C2.63859 10.0751 2.63859 10.0746 2.63225 10.0702C2.62688 10.0668 2.62688 10.0653 2.63127 10.0653C2.63469 10.0653 2.63664 10.0634 2.63469 10.0609C2.63322 10.0585 2.6342 10.0551 2.63713 10.0531C2.64054 10.0512 2.64054 10.0473 2.63713 10.0409C2.6342 10.0356 2.6342 10.0307 2.63664 10.0292C2.63908 10.0278 2.64054 10.02 2.64005 10.0117C2.63957 10.0038 2.64005 9.99701 2.64152 9.99701C2.64347 9.99701 2.64493 9.99116 2.64542 9.98335C2.64689 9.95748 2.64884 9.94821 2.65372 9.94821C2.65616 9.94821 2.65665 9.94675 2.65518 9.94528C2.65323 9.94333 2.65665 9.93503 2.6625 9.92674C2.68983 9.88769 2.73034 9.85011 2.7689 9.82913C2.78598 9.81986 2.79964 9.80668 2.81233 9.78862C2.81575 9.78325 2.83234 9.77203 2.84893 9.76324C2.86748 9.753 2.88456 9.73933 2.89432 9.72615C2.90359 9.71395 2.91872 9.70126 2.93336 9.69443C2.95484 9.68418 2.97631 9.66661 2.98656 9.65002C2.99193 9.64172 3.01877 9.62367 3.02414 9.62513C3.02609 9.62562 3.02755 9.62415 3.02755 9.62171C3.02755 9.61927 3.0339 9.61488 3.04219 9.61147C3.05 9.60805 3.05684 9.60366 3.05684 9.6017C3.05684 9.60024 3.0622 9.59536 3.06904 9.59194C3.07538 9.58853 3.07977 9.58414 3.0788 9.58218C3.07782 9.58023 3.08221 9.57584 3.08856 9.57242C3.0949 9.56901 3.0993 9.56413 3.09783 9.56169C3.09637 9.55973 3.09881 9.55778 3.10271 9.55778C3.1071 9.55778 3.11052 9.55583 3.11052 9.55388C3.11052 9.55144 3.11882 9.54558 3.12907 9.54021C3.13883 9.53533 3.14859 9.5285 3.15054 9.52606C3.15249 9.52313 3.15444 9.52313 3.15444 9.52557C3.15444 9.52948 3.17299 9.51044 3.18861 9.49043C3.19837 9.47774 3.22033 9.46408 3.22423 9.46847C3.22618 9.46994 3.22765 9.46945 3.22765 9.46652C3.22765 9.46359 3.2335 9.45871 3.24083 9.45578C3.24863 9.45237 3.26083 9.44114 3.26816 9.4304C3.27645 9.41869 3.29207 9.406 3.3072 9.39868C3.32135 9.39136 3.3438 9.37428 3.35698 9.36013C3.37064 9.34597 3.39309 9.32743 3.40773 9.31864C3.42237 9.31035 3.43702 9.30059 3.43994 9.29766C3.47362 9.26496 3.49704 9.24593 3.51559 9.23617C3.52779 9.22982 3.54194 9.2186 3.54731 9.21225C3.56683 9.18785 3.5805 9.17663 3.60148 9.16638C3.61368 9.16101 3.63125 9.14637 3.64101 9.13465C3.65078 9.12294 3.66981 9.10732 3.68299 9.10049C3.70641 9.08878 3.74009 9.05852 3.74009 9.04925C3.74009 9.04681 3.74204 9.04583 3.74448 9.0473C3.74692 9.04925 3.74985 9.04827 3.75082 9.04583C3.75131 9.04339 3.764 9.03363 3.77815 9.02387C3.79231 9.0146 3.80207 9.00923 3.80011 9.01265C3.79816 9.01606 3.80304 9.01265 3.81134 9.00533C3.81915 8.998 3.82988 8.98824 3.83525 8.98385C3.84062 8.97995 3.8416 8.978 3.83769 8.97995C3.81915 8.98824 3.86746 8.95164 3.8904 8.93944C3.90455 8.93212 3.91968 8.9209 3.92456 8.91455C3.94604 8.88429 3.95189 8.87844 3.96409 8.87356C3.98362 8.86624 3.99826 8.8638 4.03047 8.86428C4.06951 8.86477 4.07683 8.86575 4.07683 8.87063C4.07683 8.87258 4.07829 8.87404 4.08073 8.87356C4.08561 8.87209 4.13637 8.88917 4.1432 8.89454C4.14613 8.89698 4.15004 8.89747 4.1515 8.89552C4.15345 8.89405 4.15492 8.89601 4.15492 8.9004C4.15492 8.90479 4.15736 8.90967 4.16077 8.91162C4.16419 8.91406 4.16468 8.91309 4.16175 8.90821C4.1598 8.9043 4.1676 8.90918 4.17932 8.91846C4.19103 8.92773 4.19884 8.93212 4.1964 8.92822C4.19298 8.92236 4.19347 8.92187 4.19933 8.92626C4.20811 8.9331 4.25106 8.94676 4.27546 8.95067C4.28571 8.95213 4.30035 8.95652 4.30816 8.96043C4.31597 8.96433 4.32475 8.96726 4.32768 8.96726C4.33061 8.96775 4.34086 8.97409 4.35013 8.9819C4.3594 8.9902 4.36965 8.99654 4.37307 8.99654C4.37648 8.99654 4.37941 8.99849 4.37941 9.00142C4.37941 9.00386 4.38088 9.00581 4.38332 9.00581C4.38527 9.00533 4.38771 9.00581 4.38917 9.0063C4.39405 9.00777 4.40674 9.01069 4.42334 9.01411C4.43261 9.01557 4.44432 9.01899 4.4492 9.02143C4.45359 9.02387 4.4575 9.02533 4.4575 9.02387C4.4575 9.02241 4.46482 9.02436 4.47409 9.02826C4.48288 9.03217 4.49166 9.03363 4.49361 9.03217C4.49508 9.03022 4.49654 9.03168 4.49654 9.03461C4.49654 9.03802 4.498 9.03998 4.50044 9.03949C4.5063 9.03754 4.54046 9.05608 4.53851 9.0595C4.53705 9.06145 4.54339 9.06584 4.55169 9.06926C4.56047 9.07267 4.57414 9.07853 4.58243 9.08244C4.59073 9.08585 4.60586 9.09024 4.61611 9.0922C4.62636 9.09366 4.63953 9.09708 4.64588 9.09903C4.65174 9.10147 4.65808 9.10196 4.65954 9.10049C4.66101 9.09854 4.66247 9.09952 4.66247 9.10244C4.66247 9.10488 4.6654 9.10732 4.66882 9.10732C4.67809 9.10732 4.71128 9.12392 4.71128 9.1288C4.71128 9.13124 4.7142 9.1327 4.71762 9.13173C4.72055 9.13124 4.72299 9.13417 4.72201 9.13807C4.72104 9.14198 4.72201 9.14393 4.72396 9.14149C4.72592 9.13954 4.73226 9.141 4.73763 9.14442C4.74788 9.15076 4.7918 9.1654 4.81328 9.16979C4.81962 9.17077 4.83621 9.17565 4.84988 9.18053L4.87721 9.18931C4.8816 9.18931 4.91381 9.21323 4.91527 9.21713C4.91625 9.21957 4.91918 9.22006 4.92162 9.21811C4.92406 9.21664 4.92601 9.21811 4.92601 9.22104C4.92601 9.22397 4.92796 9.22494 4.93089 9.22348C4.93382 9.22201 4.93577 9.22299 4.93577 9.22543C4.93577 9.22836 4.93724 9.23031 4.93968 9.23031C4.94163 9.22982 4.94407 9.23031 4.94553 9.2308C4.947 9.23129 4.95237 9.23275 4.95773 9.23373L4.96158 9.23466C4.97517 9.23795 4.98226 9.23966 4.9836 9.24056C4.98409 9.24153 4.98702 9.24251 4.98946 9.243C4.99238 9.24349 4.99482 9.24446 4.9958 9.24544C4.99671 9.24635 5.00275 9.24769 5.01788 9.25105L5.02118 9.25178C5.04558 9.25666 5.05778 9.26154 5.05778 9.26594C5.05778 9.26838 5.05973 9.26886 5.06266 9.2674C5.06559 9.26594 5.06754 9.26691 5.06754 9.26984C5.06754 9.27277 5.06949 9.27423 5.07193 9.27277C5.07437 9.2713 5.08169 9.27521 5.08853 9.28155C5.09536 9.2879 5.10219 9.2918 5.10366 9.29034C5.10512 9.28887 5.10658 9.29034 5.10658 9.29375C5.10658 9.29717 5.10854 9.29815 5.11146 9.29668C5.11439 9.29522 5.11635 9.29619 5.11635 9.29912C5.11635 9.30205 5.11879 9.30303 5.12123 9.30156C5.12415 9.3001 5.12611 9.30107 5.12611 9.30352C5.12611 9.30644 5.12757 9.3084 5.13001 9.30791C5.13196 9.30742 5.14563 9.30986 5.16027 9.31376C5.17491 9.31767 5.18809 9.32108 5.18955 9.32108C5.21298 9.32548 5.24958 9.34061 5.25934 9.34988C5.26666 9.35671 5.27252 9.36062 5.27252 9.35915C5.27252 9.35769 5.27642 9.36062 5.2813 9.3655C5.29887 9.38453 5.35939 9.38258 5.37793 9.36208C5.38232 9.3572 5.38818 9.35281 5.39111 9.35281C5.39355 9.35281 5.39941 9.3489 5.4038 9.34402C5.41307 9.33426 5.42966 9.3245 5.46529 9.3084C5.47359 9.30449 5.49164 9.29034 5.50629 9.27619C5.52044 9.26203 5.53362 9.25081 5.53557 9.2513C5.53703 9.2513 5.53947 9.25081 5.54094 9.25032C5.5424 9.24983 5.54679 9.24886 5.55118 9.24788C5.56387 9.24544 5.60048 9.22104 5.62 9.20152C5.63025 9.19175 5.64342 9.18102 5.64928 9.17809C5.66685 9.16931 5.6893 9.16101 5.69369 9.1615C5.69564 9.16198 5.69711 9.16003 5.69711 9.15662C5.69711 9.15369 5.69857 9.15271 5.70052 9.15418C5.70199 9.15613 5.71224 9.14734 5.72346 9.13514C5.73957 9.11709 5.76299 9.10098 5.78007 9.09708C5.79423 9.09317 5.82302 9.07463 5.84157 9.05657C5.8645 9.0351 5.90501 9.01118 5.91819 9.01118C5.92209 9.01118 5.93722 8.99947 5.95137 8.98532C5.96797 8.96921 5.987 8.95555 6.00213 8.95018C6.01579 8.94481 6.02946 8.93798 6.03288 8.93456C6.03629 8.93114 6.04117 8.92822 6.04312 8.92822C6.04508 8.92822 6.05435 8.92041 6.06411 8.91113C6.08802 8.88917 6.11584 8.87112 6.13341 8.86672C6.14122 8.86477 6.1583 8.85257 6.17148 8.83988C6.18612 8.82524 6.21101 8.80865 6.2359 8.79693C6.25981 8.78522 6.28519 8.76863 6.29837 8.75545C6.31642 8.73739 6.33058 8.72812 6.35107 8.7208C6.37206 8.71348 6.39012 8.70128 6.40134 8.68761C6.41257 8.67346 6.46967 8.6393 6.4804 8.64028C6.48382 8.64076 6.49163 8.63393 6.5214 8.60758C6.53409 8.59635 6.55898 8.58073 6.57655 8.57244C6.60632 8.55926 6.63902 8.53291 6.63902 8.52217C6.63902 8.51973 6.64097 8.51875 6.64341 8.52022C6.64585 8.52217 6.64878 8.52168 6.64975 8.51973C6.65024 8.51729 6.66683 8.50802 6.68636 8.49826C6.70588 8.4885 6.72003 8.48313 6.71857 8.48606C6.71661 8.48898 6.72784 8.47922 6.74345 8.46361C6.75858 8.44848 6.77811 8.43384 6.78689 8.43042C6.81812 8.41871 6.83521 8.40797 6.8518 8.38991C6.86546 8.37576 6.90939 8.34745 6.92208 8.34501C6.92354 8.34501 6.93232 8.34062 6.9416 8.33525C6.95087 8.32988 6.96063 8.32647 6.96356 8.32744C6.966 8.32793 6.96698 8.32744 6.96502 8.32549C6.95868 8.31866 6.99967 8.28499 7.02505 8.2762C7.04018 8.27083 7.06068 8.25766 7.07532 8.24399C7.08898 8.2313 7.10216 8.22105 7.1046 8.22105C7.10704 8.22105 7.11046 8.21959 7.11192 8.21715C7.11339 8.21422 7.12949 8.20544 7.14755 8.19714C7.16658 8.18835 7.1905 8.17176 7.20465 8.15761C7.22466 8.1376 7.25492 8.12052 7.2637 8.12393C7.26663 8.12491 7.28127 8.1132 7.31153 8.08538C7.32373 8.07367 7.33642 8.06439 7.33983 8.06439C7.34325 8.06439 7.3496 8.06098 7.3535 8.05658C7.35789 8.05268 7.36131 8.05024 7.36131 8.05219C7.36131 8.05366 7.37449 8.04829 7.39059 8.0395C7.4067 8.03121 7.41987 8.02193 7.41987 8.01998C7.41987 8.01364 7.45355 7.98436 7.46282 7.98289C7.48234 7.97899 7.51992 7.98192 7.53261 7.98826C7.54042 7.99216 7.5453 7.99314 7.54383 7.99021C7.53749 7.98045 7.56921 8.00388 7.58629 8.02193C7.59556 8.03169 7.60484 8.03853 7.60679 8.03658C7.60874 8.03511 7.61021 8.03658 7.61021 8.03999C7.61021 8.04341 7.61167 8.04536 7.61313 8.04341C7.61509 8.04194 7.62387 8.04341 7.63266 8.04731C7.64193 8.05122 7.65071 8.05414 7.65169 8.05414L7.6717 8.06195C7.68146 8.06586 7.69073 8.06927 7.69268 8.06927C7.69415 8.06927 7.70245 8.07562 7.71025 8.08294C7.73319 8.10441 7.74978 8.11368 7.78688 8.12637C7.82006 8.1376 7.84983 8.15517 7.87228 8.17615C7.87814 8.18201 7.88595 8.1864 7.88985 8.1864C7.89327 8.1864 7.89863 8.18884 7.90108 8.19128C7.904 8.19421 7.91084 8.19763 7.91669 8.1986C7.92255 8.20007 7.93182 8.20202 7.9367 8.203C7.95232 8.20641 7.97721 8.22105 8.00551 8.24253C8.0304 8.26205 8.05188 8.27278 8.06066 8.27034C8.06261 8.26986 8.06408 8.27132 8.06408 8.27425C8.06408 8.27718 8.06554 8.27864 8.06798 8.27815C8.08067 8.27522 8.11776 8.29231 8.13436 8.3089C8.15241 8.32696 8.16022 8.33232 8.16364 8.3294C8.1651 8.32744 8.16657 8.32891 8.16657 8.33184C8.16657 8.33623 8.17926 8.34306 8.19097 8.34501C8.21488 8.34892 8.25392 8.36746 8.27101 8.3821C8.28272 8.39235 8.29346 8.39919 8.29541 8.39772C8.29687 8.39626 8.29834 8.39675 8.29834 8.39967C8.29834 8.40553 8.353 8.43042 8.3652 8.43042C8.36959 8.43042 8.3774 8.43432 8.38277 8.43872C8.39009 8.44506 8.39155 8.44555 8.38862 8.44018C8.38374 8.43091 8.4018 8.44604 8.42474 8.46946C8.43401 8.47874 8.43938 8.48313 8.43743 8.47922C8.43401 8.47337 8.4345 8.47288 8.44035 8.47776C8.44426 8.48069 8.4628 8.48898 8.48135 8.4963C8.52966 8.51436 8.55748 8.52851 8.55407 8.5334C8.5526 8.53584 8.55358 8.53779 8.55602 8.53779C8.55797 8.53779 8.5648 8.54218 8.57066 8.54755C8.57652 8.5534 8.5814 8.55633 8.5814 8.55487C8.5814 8.5534 8.58628 8.55536 8.59262 8.55975C8.59897 8.56365 8.6058 8.56561 8.60726 8.56365C8.60921 8.56219 8.61068 8.56317 8.61068 8.56609C8.61068 8.56951 8.61214 8.57146 8.61458 8.57097C8.62386 8.56756 8.68144 8.59391 8.69608 8.60806C8.71268 8.62466 8.74245 8.64028 8.76929 8.6476C8.8015 8.65638 8.82346 8.66809 8.84103 8.68517C8.85909 8.70274 8.8669 8.70762 8.91228 8.72422C8.92937 8.73056 8.94742 8.73935 8.95279 8.74423C8.95767 8.74911 8.96206 8.75155 8.96206 8.74959C8.96206 8.74764 8.96597 8.74959 8.97085 8.75399C8.97573 8.75887 8.98159 8.76082 8.98305 8.75887C8.985 8.7574 8.98647 8.75838 8.98647 8.7618C8.98647 8.76472 8.99232 8.77009 9.00013 8.77302C9.01721 8.77985 9.04503 8.78132 9.04503 8.77546C9.04503 8.77253 9.04649 8.77204 9.04796 8.77351C9.05137 8.77692 9.07919 8.74813 9.07919 8.7413C9.07919 8.73935 9.09139 8.73007 9.10603 8.72031C9.12068 8.71104 9.13825 8.69445 9.14508 8.6842C9.15825 8.66321 9.20071 8.62954 9.20803 8.63393C9.21047 8.63588 9.21096 8.63442 9.20901 8.63149C9.20706 8.62807 9.20755 8.62563 9.2095 8.62563C9.21194 8.62563 9.21779 8.61783 9.22316 8.60806C9.22853 8.59782 9.24415 8.58269 9.2583 8.57293C9.27245 8.56365 9.29051 8.54608 9.29832 8.5334C9.30711 8.51973 9.32223 8.50558 9.33688 8.49679C9.35103 8.4885 9.36567 8.47434 9.37397 8.46165C9.38226 8.44897 9.39886 8.43286 9.41398 8.4231C9.42814 8.41383 9.44571 8.39723 9.45254 8.3865C9.45986 8.37527 9.47597 8.35965 9.48865 8.35185C9.51159 8.33721 9.51647 8.33281 9.53258 8.30597C9.53746 8.29767 9.54771 8.28791 9.55551 8.28401C9.5765 8.27327 9.58626 8.26449 9.60188 8.24155C9.60969 8.23033 9.62677 8.21373 9.63946 8.20495C9.6663 8.1864 9.66971 8.18347 9.68045 8.16444C9.68484 8.15614 9.70095 8.14101 9.71608 8.13077C9.73121 8.12052 9.74878 8.10344 9.75561 8.09319C9.76195 8.08245 9.77562 8.06879 9.78587 8.06244C9.81027 8.04682 9.82442 8.03267 9.83321 8.01559C9.83711 8.00778 9.85273 7.99363 9.86688 7.98436C9.88299 7.97411 9.89958 7.958 9.90983 7.94287C9.91861 7.92921 9.92789 7.91798 9.92984 7.91798C9.93911 7.91798 9.97132 7.89065 9.9845 7.87113C9.99768 7.85161 10.024 7.8316 10.0323 7.83404C10.0348 7.83453 10.0353 7.83306 10.0333 7.83014C10.0318 7.8277 10.0328 7.82526 10.0353 7.82526C10.0382 7.82526 10.0479 7.81501 10.0572 7.80183C10.0665 7.78914 10.0836 7.77206 10.0958 7.76328C10.108 7.75498 10.1251 7.73839 10.1338 7.72618C10.1431 7.71398 10.1582 7.69934 10.1675 7.69349C10.1773 7.68763 10.1914 7.67494 10.1992 7.66567C10.2075 7.6564 10.2212 7.64175 10.2305 7.63297C10.2641 7.60222 10.3295 7.53927 10.3544 7.5134L10.3544 7.51338C10.3686 7.49923 10.3862 7.48168 10.3944 7.47436C10.4023 7.46753 10.4242 7.44605 10.4437 7.42751C10.4628 7.40847 10.5018 7.37138 10.5306 7.34454C10.5599 7.3177 10.6004 7.27914 10.6214 7.25914C10.6663 7.2157 10.6785 7.20545 10.6853 7.20545C10.6878 7.20545 10.6892 7.2035 10.6878 7.20106C10.6858 7.19862 10.6863 7.19569 10.6882 7.19471C10.6907 7.19423 10.7004 7.18398 10.7107 7.17226C10.7205 7.16104 10.7288 7.15274 10.7288 7.15421C10.7288 7.15616 10.7341 7.15128 10.741 7.14396C10.7478 7.13664 10.7532 7.13273 10.7532 7.13469C10.7532 7.13664 10.758 7.13225 10.7639 7.12444C10.7795 7.10345 10.822 7.06441 10.8376 7.05611C10.8449 7.05221 10.8508 7.04782 10.8508 7.04635C10.8508 7.04489 10.8478 7.04538 10.8449 7.04733C10.8283 7.05758 10.8708 7.01463 10.8918 6.99999C10.9049 6.99072 10.9191 6.97803 10.9235 6.97119C10.9371 6.94972 10.9454 6.94142 10.9679 6.92581C10.9899 6.91019 11.0064 6.89408 11.0069 6.88676C11.0069 6.88091 11.0274 6.86139 11.0489 6.84723C11.0601 6.8404 11.0738 6.82576 11.0796 6.81502C11.0962 6.78525 11.1255 6.77354 11.1499 6.78623C11.1675 6.7955 11.2358 6.86919 11.249 6.89311C11.2558 6.90531 11.27 6.92093 11.2807 6.92873C11.2978 6.94045 11.3246 6.97559 11.3203 6.97998C11.3193 6.98095 11.3266 6.98876 11.3368 6.99706C11.3705 7.02634 11.3803 7.03708 11.39 7.0566C11.3954 7.06685 11.4091 7.08295 11.4208 7.09174C11.4325 7.10052 11.4403 7.10784 11.4379 7.10784C11.4359 7.10784 11.4364 7.1098 11.4393 7.11175C11.4423 7.1137 11.4486 7.12249 11.453 7.13127C11.4579 7.14054 11.472 7.15811 11.4842 7.1708C11.4969 7.18349 11.5116 7.20008 11.5169 7.20789C11.5325 7.23034 11.5516 7.24937 11.5579 7.24937C11.5613 7.24937 11.5628 7.25133 11.5613 7.25377C11.5555 7.26304 11.5896 7.25377 11.5984 7.24352C11.6131 7.22692 11.6184 7.21131 11.6243 7.16885C11.6302 7.12883 11.6321 7.11956 11.6389 7.10638C11.6424 7.09906 11.6438 7.09418 11.6414 7.09564C11.6389 7.09711 11.6424 7.08832 11.6492 7.07612C11.6555 7.06343 11.6585 7.05514 11.6555 7.05709C11.6526 7.05855 11.6541 7.05465 11.6585 7.04733C11.6633 7.04049 11.6653 7.03464 11.6638 7.03464C11.6619 7.03464 11.6619 7.03171 11.6643 7.02829C11.6663 7.02537 11.6682 7.02146 11.6682 7.02Z" fill="black"/>
<path d="M6.09006 5.00118C6.08957 5.00167 6.06176 5.00362 6.02808 5.00508C5.95927 5.0085 5.9334 5.01094 5.91583 5.01582C5.909 5.01777 5.90071 5.01972 5.89729 5.0207C5.89338 5.02119 5.88704 5.02363 5.88265 5.02558C5.86654 5.03241 5.80163 5.04998 5.7743 5.05486C5.76503 5.05633 5.75088 5.05877 5.74258 5.06023C5.71476 5.06511 5.67914 5.08122 5.65278 5.10074C5.63863 5.11147 5.62497 5.12075 5.62252 5.12075C5.61667 5.12172 5.61423 5.12221 5.59227 5.12855C5.56786 5.13588 5.53321 5.15637 5.52199 5.17053C5.5093 5.18614 5.47855 5.20859 5.47514 5.20469C5.47319 5.20322 5.47172 5.20371 5.47172 5.20615C5.47172 5.20908 5.46294 5.21494 5.45269 5.21933C5.4317 5.2286 5.42194 5.24715 5.41511 5.28668C5.41121 5.31157 5.41072 8.4838 5.41462 8.50234C5.41609 8.50918 5.41755 8.51601 5.41755 8.51747C5.41853 8.52577 5.43707 8.54041 5.44927 8.54236C5.46147 8.5448 5.46684 8.54187 5.48588 8.52186C5.49954 8.50771 5.52053 8.49307 5.53712 8.48575C5.55274 8.47892 5.57421 8.46428 5.58495 8.45305C5.59617 8.44134 5.62252 8.42426 5.6479 8.41157C5.67328 8.39888 5.69768 8.38277 5.70696 8.37253C5.71623 8.36179 5.73819 8.34764 5.75966 8.33739C5.77967 8.32811 5.80261 8.31347 5.81091 8.30469C5.82848 8.28566 5.85532 8.26857 5.89143 8.25393C5.90851 8.24661 5.92364 8.23588 5.93292 8.22416C5.94121 8.21343 5.95781 8.20074 5.97196 8.19488C5.98562 8.18854 6.00124 8.1817 6.0071 8.17878C6.01295 8.17634 6.02711 8.16511 6.03833 8.15437C6.05785 8.13583 6.12715 8.09532 6.13203 8.1002C6.13301 8.10167 6.14375 8.0919 6.15546 8.07873C6.17401 8.05774 6.20866 8.03334 6.20866 8.04115C6.20866 8.04749 6.24087 8.02651 6.26185 8.00699C6.28479 7.98551 6.34677 7.9494 6.35165 7.95428C6.35311 7.95574 6.36531 7.94598 6.378 7.93281C6.40143 7.9084 6.41656 7.89864 6.4473 7.88693C6.45658 7.88351 6.47756 7.86887 6.49367 7.85423C6.51905 7.83178 6.55174 7.81177 6.56736 7.80933C6.57663 7.80836 6.59664 7.79323 6.61128 7.77615C6.61958 7.76639 6.64154 7.75174 6.66497 7.74101C6.68693 7.73027 6.71377 7.7127 6.72646 7.7005C6.73866 7.68879 6.75965 7.67415 6.77282 7.66829C6.81919 7.6473 6.82602 7.64291 6.83822 7.62632C6.84603 7.61558 6.86018 7.60582 6.87726 7.59899C6.90996 7.58581 6.92314 7.57752 6.94559 7.55702C6.97438 7.53115 6.9861 7.52334 7.01538 7.51163C7.03246 7.50431 7.05052 7.49211 7.06125 7.48088C7.0715 7.46917 7.092 7.45551 7.11347 7.44575C7.13495 7.43599 7.15984 7.41939 7.17545 7.40475C7.19156 7.38962 7.21401 7.37498 7.23353 7.36717C7.25354 7.35888 7.27257 7.34619 7.28477 7.33301C7.29551 7.32179 7.31454 7.30568 7.32723 7.29738C7.3448 7.28567 7.35115 7.27786 7.35456 7.26371C7.3614 7.23491 7.35847 5.06853 7.35163 5.04461C7.34529 5.02216 7.33016 5.00362 7.31747 5.00264C7.30576 5.00167 6.09104 5.00069 6.09006 5.00118Z" fill="#0282FD"/>
<path d="M7.62153 5.00207C7.60786 5.005 7.59517 5.0172 7.5859 5.03721C7.57907 5.05283 7.57809 5.15434 7.57712 6.16213L7.57663 7.26997L7.58688 7.28364C7.59225 7.29144 7.60494 7.30218 7.61421 7.30755C7.62348 7.31341 7.64056 7.32609 7.65179 7.33634C7.66252 7.34659 7.68058 7.35733 7.69132 7.36026C7.70205 7.3627 7.71962 7.36904 7.72987 7.37343C7.74012 7.37783 7.74988 7.38124 7.75135 7.38075C7.75281 7.38075 7.76404 7.38905 7.77575 7.39979C7.80015 7.42175 7.82602 7.43688 7.84603 7.4403C7.86652 7.4442 7.90752 7.46518 7.9246 7.48129C7.94217 7.4974 7.96559 7.50911 7.99976 7.51936C8.01293 7.52326 8.03294 7.534 8.04466 7.54327C8.06857 7.5623 8.1042 7.58475 8.11298 7.58671C8.1164 7.58768 8.12274 7.58963 8.12665 7.5911C8.13055 7.59256 8.14373 7.59744 8.15642 7.60183C8.16862 7.60623 8.18667 7.61745 8.19692 7.62672C8.22132 7.64917 8.26866 7.67211 8.28428 7.6687C8.28623 7.66821 8.2877 7.67016 8.2877 7.67358C8.2877 7.6765 8.28916 7.67797 8.29063 7.67602C8.29551 7.67162 8.31991 7.68529 8.34089 7.70432C8.35846 7.71994 8.39604 7.73946 8.41507 7.74239C8.41947 7.74337 8.42728 7.74678 8.43216 7.75069C8.4385 7.75605 8.43996 7.75654 8.43704 7.75117C8.43069 7.74141 8.45753 7.75898 8.48047 7.78046C8.49755 7.79607 8.53611 7.81413 8.58247 7.8278C8.59223 7.83024 8.60053 7.83658 8.62493 7.85903C8.63274 7.86635 8.64884 7.87513 8.66007 7.87953C8.67129 7.88343 8.6913 7.89075 8.70448 7.89514C8.71814 7.90002 8.74206 7.91467 8.75768 7.92735C8.77378 7.94004 8.79477 7.95273 8.80453 7.95615C8.81429 7.95908 8.83527 7.96884 8.85138 7.97713C8.86748 7.98543 8.88359 7.99275 8.88798 7.99324C8.89774 7.9947 8.97143 7.96152 8.98071 7.95176C8.9851 7.94688 8.9934 7.93516 8.99974 7.92491C9.00609 7.91467 9.02268 7.89905 9.03732 7.88978C9.05147 7.8805 9.0666 7.86684 9.07051 7.85952C9.08124 7.84048 9.09344 7.82731 9.10808 7.8195C9.12468 7.8112 9.13883 7.79705 9.15298 7.77509C9.15884 7.76581 9.17153 7.75313 9.1808 7.74678C9.20667 7.7297 9.21643 7.72043 9.22912 7.70188C9.23546 7.69261 9.25157 7.67699 9.26523 7.66772C9.2789 7.65845 9.29647 7.64185 9.30379 7.63063C9.31111 7.61989 9.32721 7.60476 9.33941 7.59695C9.35161 7.58915 9.36723 7.57353 9.37358 7.5623C9.38382 7.54522 9.41994 7.51106 9.41994 7.51838C9.41994 7.52473 9.44483 7.49886 9.45654 7.48031C9.46386 7.46909 9.47753 7.45445 9.48729 7.44859C9.49754 7.44225 9.50974 7.42907 9.51511 7.41785C9.52438 7.39881 9.52438 7.37783 9.52487 6.23631C9.52487 5.13433 9.52438 5.07284 9.51608 5.04599C9.50047 4.99524 9.61027 5.00061 8.55612 5.00061C8.04758 5.00061 7.6269 5.00109 7.62153 5.00207Z" fill="#0282FD"/>
<path d="M9.74498 5.05923C9.74888 5.0363 9.76352 5.01092 9.7767 5.00457C9.785 5.00018 9.80794 4.9992 9.8543 5.00067C9.98363 5.00506 10.052 5.00897 10.052 5.01287C10.052 5.01336 10.0617 5.01433 10.0739 5.01531C10.0861 5.01629 10.1017 5.01921 10.1095 5.02214C10.1169 5.02507 10.1227 5.02605 10.1227 5.02458C10.1227 5.02263 10.1261 5.02409 10.13 5.02751C10.1339 5.03093 10.1374 5.0319 10.1374 5.03044C10.1374 5.02849 10.1422 5.02995 10.1486 5.03288C10.1544 5.0363 10.1637 5.03922 10.1691 5.03971C10.1979 5.04264 10.2833 5.06216 10.3106 5.07241C10.3189 5.07534 10.3331 5.08364 10.3423 5.09096C10.3633 5.10706 10.3882 5.12024 10.4302 5.13781C10.4512 5.1461 10.4702 5.15879 10.4863 5.17539C10.5063 5.1954 10.5185 5.20223 10.5522 5.21443C10.5751 5.22224 10.6015 5.22956 10.6108 5.23005C10.62 5.23102 10.6288 5.232 10.6303 5.23249C10.6317 5.23297 10.6352 5.23297 10.6376 5.232C10.6405 5.23151 11.0329 5.23053 11.5102 5.23005C12.1193 5.22956 12.3813 5.23102 12.3887 5.23444C12.4067 5.24371 12.4238 5.28812 12.4219 5.32277C12.4214 5.33058 12.417 5.35352 12.4116 5.37402C12.4067 5.39403 12.4014 5.41843 12.3999 5.4277C12.396 5.45064 12.3931 5.46577 12.3896 5.4765C12.3857 5.4887 12.3818 5.50725 12.3813 5.51408C12.3809 5.5175 12.3794 5.52043 12.3774 5.52043C12.3755 5.52043 12.374 5.52336 12.374 5.52628C12.374 5.5297 12.3721 5.54141 12.3701 5.55215C12.3682 5.56289 12.3662 5.57704 12.3652 5.58387C12.3638 5.59607 12.3589 5.62975 12.3555 5.6522C12.3545 5.65903 12.3521 5.68148 12.3506 5.70295C12.3491 5.72394 12.3472 5.74687 12.3462 5.7542C12.3447 5.76103 12.3423 5.77665 12.3408 5.78885C12.3389 5.80105 12.3364 5.81422 12.336 5.81813C12.3355 5.82203 12.333 5.83521 12.3311 5.84741C12.3257 5.88011 12.3242 5.88743 12.3072 5.9499C12.2994 5.97772 12.2959 5.99382 12.2915 6.0231C12.2906 6.03238 12.2881 6.04555 12.2872 6.05239C12.2862 6.05922 12.2837 6.07971 12.2818 6.09875C12.2774 6.13974 12.2759 6.15243 12.275 6.15243C12.2745 6.15243 12.2735 6.16122 12.2725 6.17195C12.2701 6.20465 12.2652 6.24955 12.2628 6.26224C12.2579 6.28811 12.2554 6.29982 12.2471 6.33545C12.2427 6.35546 12.2393 6.37351 12.2398 6.37546C12.2403 6.3779 12.2388 6.37937 12.2364 6.37937C12.234 6.37937 12.2325 6.38327 12.2335 6.38767C12.234 6.39255 12.233 6.3984 12.231 6.40133C12.2291 6.40377 12.2257 6.41695 12.2242 6.43012C12.2222 6.4433 12.2198 6.4555 12.2188 6.45697C12.2183 6.45843 12.2159 6.4721 12.2139 6.48674C12.2125 6.50138 12.21 6.51895 12.2091 6.52578C12.2081 6.53261 12.2057 6.55213 12.2042 6.5697C12.2027 6.58727 12.2003 6.60679 12.1993 6.61363C12.1983 6.62046 12.1959 6.63803 12.1944 6.65267C12.193 6.66731 12.1905 6.68488 12.1895 6.69171C12.1886 6.69854 12.1866 6.7127 12.1847 6.72343C12.1832 6.73466 12.1808 6.74881 12.1793 6.75516C12.17 6.7981 12.171 6.79566 12.1651 6.8147C12.1632 6.82251 12.1598 6.82836 12.1573 6.82836C12.1549 6.82836 12.1534 6.82983 12.1539 6.83178C12.1544 6.83422 12.152 6.84203 12.1486 6.85032L11.6864 6.94061C11.6898 6.9167 11.6932 6.89913 11.6942 6.89913C11.6952 6.89913 11.6976 6.88888 11.7 6.87472C11.701 6.86936 11.703 6.86252 11.7044 6.86008C11.7064 6.85716 11.7069 6.8513 11.7064 6.84642C11.7054 6.84203 11.7069 6.83812 11.7093 6.83812C11.7122 6.83812 11.7127 6.83568 11.7113 6.83324C11.7098 6.83031 11.7108 6.82836 11.7142 6.82836C11.7176 6.82836 11.7186 6.8269 11.7171 6.82494C11.7152 6.82348 11.7176 6.81762 11.722 6.81226C11.7269 6.80689 11.7284 6.80347 11.7254 6.80542C11.7225 6.80738 11.724 6.80054 11.7288 6.79029C11.7337 6.78053 11.7391 6.76443 11.7406 6.75516C11.742 6.74588 11.744 6.73271 11.7454 6.72587C11.7469 6.71904 11.7489 6.70294 11.7503 6.68976C11.7542 6.6473 11.7654 6.58483 11.7747 6.55018C11.7767 6.54335 11.7781 6.53505 11.7781 6.53164C11.7786 6.52871 11.7806 6.52578 11.783 6.52578C11.785 6.52578 11.7864 6.52432 11.7859 6.52188C11.7855 6.51992 11.7879 6.51065 11.7913 6.50138C11.7952 6.4921 11.7986 6.48283 11.7991 6.48039C11.7996 6.47844 11.8006 6.47649 11.8016 6.47551C11.8025 6.47405 11.8064 6.45648 11.8074 6.44623C11.8079 6.44184 11.8099 6.43793 11.8113 6.43793C11.8128 6.43793 11.8142 6.43403 11.8147 6.42915C11.8147 6.42476 11.8167 6.41548 11.8182 6.40865C11.8211 6.39645 11.824 6.3779 11.8284 6.34277C11.8294 6.33203 11.8318 6.31788 11.8333 6.31104C11.8347 6.30421 11.8372 6.29103 11.8387 6.28176C11.8421 6.2598 11.8533 6.21441 11.8591 6.1988C11.8616 6.19196 11.864 6.18513 11.8645 6.18318C11.865 6.18123 11.8689 6.17147 11.8728 6.16122C11.8772 6.15146 11.8816 6.13926 11.8826 6.13438L11.8918 6.09143C11.8967 6.06751 11.8992 6.05434 11.9021 6.03286C11.908 5.9865 11.9128 5.95868 11.9211 5.9255L11.9309 5.88645C11.9319 5.88255 11.9328 5.87864 11.9328 5.87767C11.9333 5.87718 11.9333 5.87523 11.9338 5.87279C11.9338 5.87084 11.9372 5.86596 11.9411 5.86156C11.945 5.85717 11.9465 5.85278 11.945 5.85131C11.9436 5.84985 11.9475 5.83863 11.9533 5.82691C11.967 5.80056 11.968 5.79763 11.9699 5.76493C11.9714 5.73126 11.9641 5.70344 11.9504 5.69026C11.9372 5.67757 11.9289 5.67562 11.8967 5.6766C11.8606 5.67757 10.3267 5.6766 10.2828 5.67562C10.2467 5.67465 10.2174 5.68245 10.2233 5.69173C10.2242 5.69368 10.2233 5.69661 10.2203 5.69856C10.2174 5.70051 10.2193 5.70734 10.2262 5.7171C10.232 5.7254 10.234 5.73028 10.2296 5.72784C10.2242 5.72443 10.2242 5.72589 10.2306 5.73321C10.2345 5.73809 10.2423 5.75224 10.2472 5.76444C10.256 5.78494 10.2662 5.79714 10.293 5.8191C10.2989 5.82398 10.3052 5.82789 10.3072 5.82789C10.3091 5.82789 10.3184 5.84009 10.3272 5.85473C10.3365 5.86986 10.3575 5.8967 10.3736 5.91476C10.3902 5.93282 10.4116 5.95819 10.4209 5.97186C10.4297 5.98504 10.439 5.99724 10.4414 5.99773C10.4434 5.9987 10.4434 6.00212 10.4419 6.00456C10.4399 6.00749 10.4404 6.00846 10.4434 6.007C10.4463 6.00505 10.4575 6.01237 10.4687 6.0231C10.48 6.03384 10.4873 6.04262 10.4853 6.04262C10.4834 6.04262 10.4844 6.04458 10.4878 6.04702C10.4912 6.04897 10.4946 6.05434 10.4956 6.05873C10.4966 6.06654 10.5141 6.08508 10.538 6.10363C10.5449 6.109 10.5571 6.12461 10.5649 6.13877C10.5727 6.15243 10.5888 6.17098 10.6005 6.18025C10.6122 6.18904 10.6273 6.20612 10.6342 6.21832C10.6405 6.23052 10.6527 6.24955 10.6605 6.26126C10.6761 6.28371 10.6757 6.2925 10.6586 6.31153C10.6532 6.31788 10.6395 6.33496 10.6288 6.34911C10.6181 6.36326 10.5995 6.38181 10.5878 6.39011C10.5756 6.39791 10.5585 6.415 10.5497 6.4272C10.541 6.43989 10.5214 6.45843 10.5073 6.46917C10.4926 6.47942 10.4765 6.49503 10.4707 6.50382C10.4648 6.5126 10.4517 6.52627 10.4414 6.53359C10.4312 6.5414 10.4165 6.55506 10.4082 6.56385C10.4004 6.57312 10.3863 6.58776 10.377 6.59606C10.3623 6.60923 10.2813 6.68781 10.1598 6.8064C10.1408 6.82495 10.0881 6.8757 10.0427 6.91865C9.95727 6.99917 9.85771 7.09824 9.8216 7.13778C9.81038 7.14998 9.79769 7.16071 9.79329 7.16071C9.78939 7.1612 9.78305 7.16169 9.78012 7.16218C9.77036 7.16364 9.75718 7.15583 9.74937 7.14363C9.74254 7.13338 9.74156 7.02065 9.74205 6.10314C9.74205 5.53702 9.74351 5.06704 9.74498 5.05923Z" fill="#0285FA"/>
<path d="M12.0724 6.98993C12.0704 6.99286 12.0699 6.99579 12.0714 6.99726C12.0724 6.99872 12.0748 6.99628 12.0763 6.99189C12.0797 6.98359 12.0768 6.98213 12.0724 6.98993Z" fill="black"/>
<path d="M5.13059 5.51647C5.12229 5.52477 5.11546 5.53453 5.11546 5.53697C5.11497 5.5438 5.09301 5.56918 5.08716 5.56918C5.07935 5.56918 5.04665 5.60823 5.04958 5.61311C5.05153 5.61603 5.05055 5.61799 5.04762 5.61799C5.04518 5.61799 5.04128 5.62287 5.03933 5.62872C5.03591 5.63995 5.00321 5.67557 5.00321 5.66825C5.00321 5.6663 4.99296 5.68143 4.98076 5.70193C4.96856 5.72291 4.95002 5.74829 4.93928 5.75952C4.92903 5.77025 4.92122 5.77904 4.92269 5.77904C4.92415 5.77904 4.92074 5.78343 4.91537 5.7888C4.91049 5.79368 4.90024 5.80978 4.89341 5.82394C4.88608 5.83809 4.87096 5.85859 4.85973 5.86932C4.84802 5.88006 4.83191 5.90202 4.82362 5.91862C4.81532 5.93472 4.7997 5.95571 4.78897 5.96547C4.77823 5.97474 4.76359 5.99426 4.75627 6.0089C4.74895 6.02354 4.7387 6.04111 4.73382 6.04843C4.72845 6.05624 4.72601 6.0621 4.72747 6.0621C4.72943 6.0621 4.7221 6.06942 4.71088 6.07772C4.69819 6.08796 4.68501 6.10651 4.67379 6.12847C4.66256 6.15043 4.64939 6.168 4.63816 6.17679C4.62694 6.18508 4.61425 6.20216 4.60449 6.22266C4.5957 6.24023 4.57765 6.26707 4.56349 6.28171C4.54983 6.29636 4.53128 6.32222 4.52201 6.33881C4.51225 6.35541 4.49322 6.38079 4.47906 6.39543C4.46296 6.41153 4.45125 6.42812 4.44929 6.43789C4.44734 6.44765 4.43612 6.46375 4.42245 6.47742C4.40927 6.49059 4.39463 6.50816 4.38975 6.51695C4.38487 6.52573 4.37902 6.53452 4.37706 6.53598C4.37462 6.53744 4.37267 6.54086 4.37267 6.5433C4.37218 6.5516 4.34973 6.58332 4.33314 6.59991C4.32387 6.6087 4.30874 6.63115 4.29898 6.65018C4.28922 6.6697 4.27458 6.6902 4.26482 6.69752C4.25554 6.70484 4.2409 6.72436 4.23261 6.74144C4.22382 6.75852 4.20674 6.78341 4.19405 6.79659C4.16867 6.82392 4.16282 6.83222 4.15062 6.85857C4.14573 6.86882 4.14037 6.87712 4.13793 6.87712C4.13597 6.87712 4.135 6.87907 4.13646 6.88151C4.13793 6.88395 4.12768 6.89566 4.11304 6.90835C4.09644 6.9225 4.08327 6.9391 4.07692 6.95423C4.07107 6.9674 4.05691 6.9879 4.04569 6.99961C4.03397 7.01133 4.02177 7.02646 4.01836 7.03329C3.992 7.08404 3.94515 7.08502 3.9188 7.03524C3.91245 7.02304 3.89879 7.00889 3.88464 6.99961C3.87195 6.99132 3.85487 6.97472 3.84706 6.96301C3.83876 6.9513 3.82168 6.93568 3.80948 6.92836C3.78556 6.91421 3.76409 6.89322 3.7636 6.88395C3.7636 6.88102 3.74652 6.86784 3.72602 6.85467C3.70553 6.84149 3.67624 6.81904 3.6616 6.80538C3.64647 6.79122 3.62207 6.77317 3.60743 6.76536C3.5923 6.75706 3.57327 6.74193 3.56448 6.73119C3.55472 6.71948 3.53764 6.7063 3.51861 6.69752C3.50153 6.68971 3.47713 6.67312 3.46444 6.66092C3.44784 6.6453 3.4293 6.63408 3.40246 6.62383C3.38098 6.61553 3.36195 6.6087 3.35951 6.6087C3.35707 6.6087 3.34487 6.59991 3.33267 6.58918C3.30924 6.56868 3.28289 6.55501 3.25849 6.5516C3.25068 6.55062 3.22872 6.54672 3.20968 6.54281C3.13794 6.52866 3.13843 6.52866 3.07059 6.52329C3.04766 6.52134 3.02277 6.5189 3.01447 6.51744C3.00666 6.51597 2.99446 6.51402 2.98763 6.51353C2.98079 6.51255 2.97006 6.5106 2.96323 6.50865C2.95639 6.50719 2.94224 6.50475 2.9315 6.50377C2.92077 6.50279 2.91198 6.50182 2.91198 6.50133C2.91198 6.49987 2.89002 6.49694 2.85586 6.49401C2.83585 6.49206 2.81145 6.49011 2.80217 6.48913C2.7929 6.48815 2.76118 6.48571 2.73141 6.48425C2.70213 6.48278 2.67236 6.48034 2.66552 6.47888C2.65528 6.47693 2.44932 6.47156 2.3361 6.47058C2.26973 6.46961 2.19701 6.48376 2.19701 6.49694C2.19701 6.49938 2.19506 6.50084 2.19311 6.49987C2.19067 6.49938 2.17602 6.5106 2.15992 6.52476C2.1443 6.53891 2.12136 6.55745 2.10916 6.56624C2.09306 6.57795 2.08281 6.59162 2.06963 6.61846C2.05938 6.63847 2.05206 6.65555 2.05304 6.65653C2.05402 6.6575 2.05158 6.6658 2.04767 6.67507C2.04377 6.68434 2.04181 6.69166 2.04279 6.69166C2.04425 6.69166 2.04181 6.69947 2.03791 6.70874C2.03401 6.71851 2.03205 6.72827 2.03352 6.73119C2.03547 6.73363 2.03352 6.73705 2.02913 6.73852C2.02522 6.73998 2.02278 6.74535 2.02376 6.75072C2.02473 6.7556 2.02376 6.75999 2.02181 6.75999C2.01985 6.75999 2.0179 6.76292 2.0179 6.76585C2.01741 6.77317 2.01156 6.81611 2.00863 6.83075C1.99887 6.88151 1.99692 6.97912 2.00521 7.00742C2.00814 7.01816 2.0096 7.02841 2.00863 7.02987C2.00716 7.03085 2.01644 7.04256 2.02864 7.05574C2.04084 7.06892 2.05548 7.08844 2.06085 7.09917C2.075 7.1265 2.08379 7.13529 2.11112 7.14895C2.12478 7.15579 2.14381 7.16994 2.15406 7.18019C2.1648 7.19092 2.1809 7.20264 2.19067 7.20654C2.20775 7.21386 2.21458 7.21533 2.25265 7.22118C2.26289 7.22313 2.27558 7.22557 2.28046 7.22655C2.28583 7.22753 2.29413 7.22948 2.29999 7.23094C2.30535 7.23192 2.31365 7.23387 2.31804 7.23534C2.32243 7.2368 2.33317 7.23924 2.34098 7.2407C2.3566 7.24412 2.3688 7.24656 2.3727 7.24802C2.37417 7.24851 2.37661 7.249 2.37905 7.24851C2.381 7.24851 2.38246 7.25046 2.38246 7.25339C2.38246 7.25583 2.38442 7.2573 2.38686 7.25534C2.3893 7.25388 2.39271 7.25486 2.39466 7.25778C2.39662 7.26071 2.40003 7.26169 2.40247 7.26023C2.40491 7.25827 2.40687 7.25974 2.40687 7.26267C2.40687 7.26559 2.40882 7.26706 2.41126 7.26559C2.4137 7.26364 2.41663 7.26511 2.4176 7.26852C2.41858 7.27145 2.42395 7.27487 2.42931 7.27535C2.4342 7.27633 2.44981 7.27926 2.46299 7.28219C2.47665 7.28511 2.49276 7.28902 2.49959 7.29C2.50642 7.29146 2.52058 7.29439 2.53131 7.29634C2.54205 7.29878 2.55425 7.30073 2.55816 7.30073C2.58012 7.30073 2.66699 7.32269 2.66308 7.32757C2.66162 7.32953 2.66211 7.33001 2.66357 7.32855C2.66552 7.32757 2.67382 7.32953 2.68212 7.33294C2.69041 7.33636 2.69871 7.33977 2.70115 7.33977C2.7031 7.34026 2.70505 7.34075 2.70603 7.34124C2.71042 7.3427 2.7236 7.34563 2.73629 7.34807C2.74459 7.34954 2.75386 7.35198 2.75727 7.35295C2.76557 7.35588 2.79681 7.3593 2.8461 7.36271C2.86611 7.36369 2.88709 7.36613 2.89295 7.3671C2.89832 7.36808 2.92906 7.37052 2.96127 7.37247C3.06815 7.37784 3.09743 7.38028 3.11208 7.38321C3.12037 7.38467 3.12965 7.38614 3.13306 7.38614C3.13599 7.38614 3.13892 7.38809 3.13892 7.39053C3.13892 7.39248 3.14038 7.39395 3.14282 7.39346C3.14477 7.39248 3.15844 7.39785 3.17308 7.40517C3.2048 7.4203 3.26581 7.44373 3.26581 7.44031C3.26581 7.43933 3.27362 7.44129 3.28289 7.44519C3.29265 7.44958 3.30143 7.45251 3.30241 7.45251C3.31071 7.453 3.33316 7.4691 3.34145 7.47984C3.34633 7.48716 3.36293 7.49887 3.37806 7.50668C3.40734 7.52181 3.42393 7.53645 3.43076 7.55549C3.43516 7.5672 3.43467 7.59453 3.43028 7.60917C3.42881 7.61307 3.42637 7.62088 3.42491 7.62625C3.42003 7.6404 3.39465 7.65553 3.36341 7.66285C3.32632 7.67164 3.28826 7.68872 3.27215 7.70434C3.25702 7.71898 3.23701 7.72874 3.19992 7.73948C3.16625 7.74972 3.14429 7.76144 3.12379 7.78096C3.11403 7.78974 3.09109 7.80341 3.07206 7.81073C3.04814 7.82 3.03057 7.83123 3.01349 7.84831C2.99983 7.86197 2.98714 7.87271 2.98567 7.87271C2.98177 7.87271 2.95346 7.90394 2.9315 7.93371C2.92125 7.94689 2.91101 7.95909 2.90905 7.96056C2.9032 7.96446 2.89148 7.99472 2.88807 8.01424C2.8827 8.04938 2.87001 8.11038 2.86367 8.13478C2.85976 8.14845 2.8583 8.16114 2.85976 8.1626C2.86123 8.16407 2.85927 8.16553 2.85586 8.16553C2.85244 8.16553 2.85098 8.16699 2.85244 8.16846C2.85391 8.17041 2.85293 8.17627 2.85 8.18212C2.84658 8.18749 2.84366 8.19579 2.84317 8.19969C2.84268 8.2036 2.84122 8.21238 2.83975 8.21921C2.8339 8.24459 2.83146 8.25631 2.82902 8.26802C2.82755 8.27485 2.8256 8.28461 2.82462 8.28998C2.82267 8.29925 2.81925 8.32853 2.81437 8.38027C2.81291 8.39198 2.81096 8.41296 2.80901 8.42663C2.80754 8.43981 2.8051 8.45738 2.80461 8.46567C2.79925 8.51887 2.79681 8.54034 2.79485 8.55108C2.79339 8.55742 2.79144 8.5706 2.78997 8.58036C2.78851 8.59012 2.78607 8.6033 2.78509 8.60964C2.78363 8.61648 2.78168 8.62721 2.78021 8.63404C2.77728 8.6482 2.77387 8.66381 2.76996 8.67894C2.7685 8.68529 2.76655 8.69554 2.76557 8.70237C2.76459 8.7092 2.76264 8.71945 2.76118 8.7258C2.75971 8.73165 2.75727 8.75215 2.75581 8.77069C2.75435 8.78924 2.75191 8.80876 2.75093 8.81364C2.75044 8.81852 2.748 8.8356 2.74605 8.85122C2.7441 8.86733 2.74166 8.88587 2.74068 8.8927C2.73531 8.92491 2.73775 8.97128 2.74556 8.98299C2.76215 9.00837 2.79241 9.003 2.81486 8.97128C2.82365 8.95908 2.83829 8.94688 2.85342 8.93955C2.86855 8.93223 2.88758 8.91711 2.90369 8.89807C2.91784 8.88197 2.93102 8.86879 2.93297 8.86928C2.9398 8.87172 2.99056 8.83512 3.01056 8.81413C3.02228 8.80193 3.04375 8.78631 3.05839 8.7785C3.07352 8.77118 3.09109 8.75703 3.0989 8.74727C3.11598 8.72384 3.12281 8.71847 3.14624 8.70774C3.16625 8.69847 3.17552 8.69017 3.19309 8.66674C3.19895 8.65942 3.21554 8.64673 3.23116 8.63893C3.24629 8.6316 3.26874 8.61404 3.28142 8.60086C3.29411 8.58768 3.31656 8.56962 3.3312 8.56133C3.34584 8.55254 3.36976 8.534 3.38391 8.51984C3.39806 8.50569 3.421 8.48812 3.43467 8.48129C3.45712 8.47006 3.48542 8.44371 3.48542 8.43444C3.48542 8.43151 3.51373 8.41248 3.51959 8.41199C3.52983 8.41101 3.56351 8.38563 3.56351 8.3788C3.56351 8.37148 3.58498 8.35342 3.6045 8.34415C3.61524 8.33927 3.6372 8.32268 3.6538 8.30706C3.67039 8.29144 3.69821 8.26997 3.71529 8.25875C3.73237 8.24801 3.75726 8.228 3.77044 8.21433C3.78361 8.20067 3.80313 8.18554 3.81436 8.18066C3.82558 8.17578 3.84462 8.16114 3.85779 8.14845C3.88024 8.126 3.88171 8.12551 3.90465 8.12746C3.91977 8.12893 3.93539 8.13478 3.94954 8.14455C3.98078 8.16602 4.00957 8.17871 4.04081 8.18554C4.08083 8.19335 4.11841 8.20848 4.14671 8.22702C4.17014 8.24264 4.23212 8.26509 4.26482 8.26948C4.27311 8.27095 4.29215 8.27876 4.3063 8.28656C4.36145 8.31829 4.37755 8.32609 4.39122 8.32853C4.39903 8.32951 4.40537 8.33097 4.40537 8.33146C4.40537 8.33195 4.40879 8.33293 4.41269 8.3339C4.46442 8.34513 4.49663 8.3583 4.52006 8.37636C4.52689 8.38173 4.53958 8.38905 4.54885 8.39296C4.56642 8.40028 4.64011 8.42029 4.65085 8.42077C4.65378 8.42077 4.65671 8.42273 4.65671 8.42517C4.65671 8.42712 4.65817 8.42858 4.66061 8.42809C4.66647 8.42663 4.70063 8.4442 4.70063 8.44908C4.70063 8.45152 4.70405 8.45347 4.70795 8.45347C4.71186 8.45347 4.71527 8.45542 4.71527 8.45738C4.71527 8.46177 4.76749 8.4808 4.79336 8.48519C4.80263 8.48715 4.81288 8.4891 4.81532 8.48959C4.81825 8.49007 4.82313 8.49203 4.82654 8.49398C4.82947 8.49642 4.8324 8.49691 4.8324 8.49495C4.8324 8.49154 4.869 8.51008 4.89341 8.52668C4.91341 8.53985 4.92708 8.54571 4.96417 8.55645C4.99052 8.56377 4.99736 8.56523 5.012 8.5667C5.01785 8.56718 5.02273 8.56962 5.02273 8.57206C5.02273 8.57402 5.0242 8.57499 5.02664 8.57353C5.02859 8.57255 5.03982 8.57841 5.05202 8.58622C5.12327 8.63502 5.17061 8.64039 5.18769 8.60232C5.1955 8.58524 5.19648 5.53502 5.18867 5.52038C5.17598 5.49695 5.15158 5.495 5.13059 5.51647Z" fill="#0282FD"/>
</svg>
