<svg width="163" height="111" viewBox="0 0 163 111" fill="none" xmlns="http://www.w3.org/2000/svg">
<path d="M125.825 41.4089C125.836 41.3558 125.925 40.8487 125.949 40.7307L131.899 38.1773C131.875 38.2716 131.834 38.3424 131.804 38.3424C131.775 38.3424 131.757 38.3601 131.763 38.3837C131.769 38.4132 131.739 38.5075 131.698 38.6078C131.61 38.8201 131.604 39.1798 131.686 39.3331C131.722 39.398 131.728 39.4688 131.704 39.4923C131.68 39.5218 131.698 39.5218 131.739 39.4982C131.775 39.4746 131.81 39.4864 131.81 39.5218C131.81 39.5572 131.84 39.569 131.869 39.5513C131.905 39.5336 131.928 39.5513 131.928 39.5926C131.928 39.6398 131.946 39.6457 131.975 39.6103C131.999 39.5749 132.058 39.5454 132.105 39.5336C132.264 39.5041 132.99 39.1503 132.99 39.1031C132.99 39.0147 133.497 38.5311 133.685 38.4368C133.792 38.3778 133.951 38.2363 134.039 38.1065C134.175 37.9178 134.759 37.5109 134.759 37.6053C134.759 37.6524 134.912 37.5227 135.195 37.2396C135.337 37.0922 135.637 36.8976 135.944 36.7561C136.221 36.6263 136.569 36.4023 136.722 36.2607C136.917 36.0779 137.112 35.9718 137.407 35.8774C137.631 35.8067 138.008 35.618 138.25 35.4587C138.692 35.1698 138.922 35.0695 139.317 35.0164C139.642 34.9634 139.948 34.9162 140.09 34.8867C140.155 34.8749 140.332 34.8454 140.479 34.8277C140.626 34.81 140.797 34.7806 140.862 34.7629C140.927 34.7452 141.116 34.7275 141.275 34.7157C141.44 34.7039 141.57 34.6862 141.57 34.6862C141.57 34.6626 141.835 34.6154 142.042 34.5978C142.171 34.586 142.342 34.5565 142.425 34.5211C142.525 34.4857 142.584 34.4857 142.614 34.5329C142.649 34.5801 142.661 34.5801 142.661 34.5329C142.661 34.4916 142.726 34.4503 142.808 34.4385C142.903 34.4149 142.938 34.4326 142.914 34.4739C142.891 34.5093 142.92 34.5034 142.973 34.4562C143.026 34.4149 143.074 34.3973 143.074 34.4149C143.074 34.4385 143.133 34.4267 143.198 34.3855C143.298 34.3324 143.315 34.3383 143.28 34.3973C143.245 34.4444 143.256 34.4562 143.315 34.4149C143.416 34.356 143.475 34.3442 143.958 34.3088C144.171 34.2911 144.518 34.2616 144.737 34.2439C146.134 34.1142 147.143 34.0788 149.177 34.0729C151.424 34.067 151.483 34.0788 152.084 34.6331C152.297 34.8218 152.497 34.9811 152.538 34.9811C152.668 34.9811 152.957 35.3054 153.099 35.6179C153.175 35.7949 153.305 36.0072 153.382 36.0897C153.553 36.2902 153.7 36.6322 153.659 36.7325C153.647 36.7797 153.653 36.8033 153.683 36.7856C153.712 36.7679 153.753 36.9035 153.777 37.0922C153.8 37.275 153.83 37.4932 153.842 37.5758C153.854 37.6583 153.877 37.8706 153.895 38.0476C153.918 38.2245 153.948 38.4898 153.966 38.6373C154.013 39.0265 154.013 40.2236 153.96 40.4654C153.936 40.5774 153.907 40.6953 153.901 40.7307C153.848 40.9784 153.753 41.1258 153.476 41.3971C153.299 41.5681 153.158 41.7273 153.158 41.7568C153.158 41.8984 152.603 42.2935 152.403 42.2935C152.362 42.2935 152.202 42.4114 152.049 42.5529C151.795 42.7888 151.548 42.9244 151.436 42.895C151.406 42.8891 151.389 42.9068 151.389 42.9303C151.389 42.9598 151.353 42.9834 151.318 42.9893C151.223 42.9952 150.976 43.0424 150.622 43.119C150.475 43.1544 150.298 43.1957 150.227 43.2075C150.15 43.2252 150.038 43.2488 149.973 43.2665C149.908 43.2842 149.802 43.3078 149.731 43.3255C149.667 43.3372 149.537 43.3903 149.437 43.4375C149.342 43.4847 149.283 43.4965 149.301 43.4611C149.325 43.4316 149.271 43.4493 149.183 43.5024C149.1 43.5613 149.03 43.5849 149.03 43.5613C149.03 43.5318 148.971 43.5613 148.9 43.6262C148.823 43.697 148.794 43.7029 148.823 43.6498C148.865 43.579 148.859 43.5731 148.788 43.6321C148.699 43.7029 148.369 43.7972 148.027 43.8503C147.915 43.868 147.756 43.8975 147.673 43.9152C147.485 43.9505 147.143 43.9977 146.288 44.098C146.193 44.1098 146.046 44.1334 145.963 44.151C145.881 44.1687 145.751 44.1923 145.668 44.21C145.586 44.2277 145.456 44.2513 145.374 44.269C145.291 44.2926 145.202 44.3103 145.167 44.3162C145.138 44.328 145.067 44.3574 145.02 44.3869C144.973 44.4164 144.896 44.4459 144.843 44.4518C144.796 44.4577 144.695 44.4813 144.625 44.499C144.448 44.5462 144.259 44.5874 144.076 44.6228C143.994 44.6405 143.864 44.6641 143.781 44.6818C143.699 44.6995 143.463 44.7231 143.251 44.7408C142.802 44.782 142.337 44.841 142.207 44.8823C142.195 44.8882 142.177 44.8882 142.16 44.8882C142.142 44.8941 142.024 44.9295 141.894 44.9766C141.765 45.0238 141.658 45.0474 141.658 45.0238C141.658 45.0061 141.617 45.0238 141.57 45.0651C141.523 45.1064 141.481 45.1182 141.481 45.0887C141.481 45.0651 141.44 45.0946 141.387 45.1594C141.34 45.2184 141.31 45.2361 141.334 45.2007C141.358 45.1535 141.299 45.1653 141.192 45.2243C141.098 45.2833 141.033 45.354 141.051 45.3835C141.069 45.413 141.063 45.4189 141.027 45.4012C140.998 45.3835 140.904 45.4012 140.827 45.4425C140.744 45.4838 140.597 45.5428 140.503 45.5663C140.408 45.5899 140.308 45.6194 140.273 45.6312C140.214 45.6489 140.025 45.6902 139.771 45.7492C139.553 45.7963 139.447 45.8199 139.435 45.8317C139.423 45.8435 139.4 45.8494 139.376 45.8553C139.193 45.9025 138.863 46.0853 138.739 46.2091C138.657 46.2917 138.592 46.3448 138.592 46.3271C138.592 46.3094 138.551 46.3389 138.498 46.386C138.45 46.4391 138.38 46.4686 138.35 46.4509C138.321 46.4273 138.297 46.4391 138.297 46.4686C138.297 46.4981 138.256 46.5217 138.209 46.5276C138.161 46.5335 138.079 46.5453 138.032 46.5512C137.984 46.5571 137.943 46.5806 137.943 46.6101C137.943 46.6337 137.925 46.6514 137.902 46.6455C137.813 46.6278 137.501 46.734 137.283 46.8519C137.094 46.9522 136.923 47.1939 136.929 47.3473C136.929 47.3709 136.911 47.418 136.882 47.4534C136.799 47.5596 136.835 48.0903 136.935 48.1964C137.059 48.3262 137.241 48.4146 137.448 48.4559C137.796 48.5149 137.908 48.5444 138.114 48.6092C138.232 48.6446 138.356 48.6977 138.391 48.7272C138.427 48.7567 138.474 48.7685 138.492 48.7508C138.515 48.7331 138.521 48.739 138.509 48.7567C138.474 48.8038 138.669 49.0043 138.728 48.9749C138.751 48.9631 138.769 48.9926 138.769 49.0397C138.769 49.0869 138.798 49.1459 138.84 49.1695C138.881 49.199 138.887 49.1872 138.857 49.14C138.828 49.0869 138.863 49.0928 138.952 49.1518C139.028 49.199 139.264 49.2992 139.476 49.37C140.013 49.5469 140.125 49.6059 140.39 49.8535C140.52 49.9774 140.65 50.0776 140.674 50.0776C140.703 50.0776 140.915 50.1661 141.157 50.2781C141.44 50.4079 141.7 50.5907 141.912 50.7912C142.325 51.204 142.531 51.375 142.608 51.375C142.637 51.375 142.649 51.3986 142.631 51.434C142.614 51.4634 142.631 51.4929 142.673 51.4929C142.749 51.4929 142.944 51.7642 142.944 51.8703C142.944 51.8998 142.973 51.9411 143.009 51.9588C143.044 51.9824 143.156 52.3126 143.251 52.6959C143.351 53.0733 143.475 53.4861 143.528 53.6041C143.581 53.722 143.616 53.8459 143.61 53.8695C143.604 53.893 143.634 53.9756 143.675 54.0464C143.711 54.1171 143.752 54.2174 143.758 54.2646C143.764 54.3117 143.781 54.4297 143.805 54.5299C143.864 54.813 143.911 55.1019 143.929 55.326C143.941 55.4381 143.952 55.5324 143.958 55.5324C143.964 55.5324 143.982 55.6091 143.988 55.7093C144 55.8037 144.023 56.0455 144.041 56.2401C144.129 57.0657 144.153 57.3075 144.159 57.4608C144.165 57.5551 144.176 57.6259 144.194 57.6259C144.212 57.6259 144.224 57.7144 144.229 57.8205C144.229 57.9208 144.253 58.1272 144.283 58.2746C144.306 58.422 144.336 58.6166 144.342 58.7051C144.347 58.7994 144.389 58.8997 144.436 58.9292C144.507 58.9704 144.507 58.9822 144.43 58.9822C144.353 58.9822 144.353 58.9881 144.43 59.0412C144.477 59.0707 144.495 59.1002 144.465 59.1002C144.436 59.1002 144.454 59.1474 144.495 59.2004C144.566 59.283 144.566 59.2889 144.501 59.2535C144.43 59.2122 144.43 59.2299 144.495 59.342C144.536 59.4186 144.577 59.5484 144.583 59.6309C144.601 59.7724 144.636 60.0083 144.695 60.3386C144.754 60.7101 144.778 60.8693 144.813 61.2821C144.831 61.5239 144.86 61.8423 144.872 61.9897C144.884 62.1372 144.914 62.4674 144.931 62.7269C144.949 62.9864 144.978 63.293 144.99 63.4051C145.002 63.5171 145.026 63.8473 145.049 64.1422C145.073 64.4311 145.096 64.7496 145.108 64.8498C145.149 65.2744 145.208 65.7462 145.232 65.9113C145.25 66.0057 145.267 66.1472 145.273 66.218C145.273 66.2946 145.309 66.3536 145.344 66.3536C145.374 66.3536 145.362 66.3831 145.315 66.4126C145.267 66.4421 145.256 66.4715 145.291 66.4715C145.32 66.4715 145.35 66.56 145.344 66.6603C145.344 66.7664 145.368 66.8902 145.397 66.9374C145.48 67.0436 145.497 67.191 145.421 67.1438C145.391 67.1202 145.397 67.1674 145.432 67.2441C145.474 67.3148 145.515 67.4858 145.527 67.6156C145.539 67.8338 145.586 68.2937 145.639 68.7419C145.651 68.8363 145.68 69.1193 145.698 69.3611C145.716 69.6029 145.745 69.8978 145.757 70.0098C145.769 70.1218 145.798 70.5759 145.822 71.0123C145.845 71.4487 145.869 71.9264 145.875 72.0738C145.887 72.2212 145.91 72.575 145.934 72.8699C145.957 73.1588 145.981 73.5186 145.993 73.666C146.005 73.8134 146.028 74.1319 146.052 74.3736C146.075 74.6154 146.099 74.869 146.105 74.9339C146.105 74.9987 146.14 75.0695 146.17 75.0931C146.205 75.1226 146.199 75.1403 146.152 75.1403C146.105 75.1403 146.093 75.1698 146.117 75.211C146.146 75.2523 146.17 75.4115 146.176 75.559C146.176 75.7064 146.193 75.8538 146.211 75.8833C146.229 75.9128 146.234 75.9953 146.229 76.072C146.223 76.1428 146.252 76.2312 146.299 76.2666C146.358 76.3197 146.358 76.3551 146.311 76.414C146.258 76.4789 146.264 76.4966 146.317 76.4966C146.376 76.4966 146.376 76.5143 146.323 76.5792C146.27 76.644 146.27 76.6735 146.317 76.703C146.358 76.7266 146.376 76.8091 146.358 76.8858C146.347 76.9625 146.352 77.0096 146.382 76.992C146.406 76.9802 146.423 77.0155 146.423 77.0686C146.423 77.1276 146.435 77.334 146.459 77.5286C146.476 77.7232 146.506 78.0004 146.523 78.1478C146.541 78.2952 146.571 78.6667 146.588 78.9734C146.606 79.28 146.63 79.6633 146.641 79.8285C146.671 80.2177 146.73 81.1907 146.759 81.7745C146.771 82.034 146.801 82.4586 146.824 82.718C146.901 83.6203 146.86 84.4872 146.706 85.1064C146.659 85.2833 146.612 85.472 146.6 85.5192C146.577 85.6312 146.523 85.6961 146.14 86.103C145.963 86.2917 145.757 86.5511 145.68 86.675C145.592 86.8283 145.444 86.9521 145.25 87.0524C145.085 87.135 144.849 87.3001 144.719 87.418C144.595 87.536 144.489 87.6185 144.483 87.5949C144.483 87.5713 144.459 87.6067 144.43 87.6716C144.406 87.7365 144.141 87.9193 143.846 88.0785C143.551 88.2377 143.321 88.3792 143.333 88.391C143.392 88.45 142.95 88.8215 142.661 88.9572C142.366 89.0928 141.983 89.423 142.048 89.482C142.059 89.4997 142 89.5469 141.906 89.5882C141.44 89.824 141.169 90.1366 141.086 90.5317C141.039 90.7794 141.021 90.856 141.01 90.856C141.004 90.856 140.992 90.9032 140.98 90.9622C140.968 91.0152 140.98 91.0506 141.004 91.0388C141.027 91.0211 141.039 91.0683 141.033 91.1391C141.027 91.2099 141.016 91.2688 141.01 91.2688C140.968 91.2688 140.974 91.4811 141.016 91.5106C141.051 91.5283 141.045 91.5755 141.004 91.6285C140.951 91.6934 140.957 91.7111 141.016 91.7111C141.08 91.7111 141.08 91.7229 141.01 91.7701C140.951 91.8055 140.945 91.829 140.992 91.829C141.045 91.829 141.051 91.8703 141.01 91.9765C140.974 92.0708 140.974 92.1298 141.016 92.1593C141.057 92.1829 141.051 92.2183 141.01 92.2713C140.962 92.3303 140.962 92.3598 141.01 92.3893C141.057 92.4188 141.057 92.4482 141.01 92.5072C140.962 92.5662 140.962 92.5957 141.016 92.6252C141.063 92.6605 141.057 92.6841 141.004 92.7195C140.939 92.7608 140.939 92.7726 140.998 92.7726C141.051 92.7726 141.057 92.808 141.027 92.8728C140.98 92.9731 140.974 93.1146 141.01 93.1854C141.057 93.2797 141.039 94.011 140.992 94.011C140.957 94.011 140.951 94.0287 140.968 94.0464C140.992 94.0699 140.951 94.1348 140.88 94.1938C140.815 94.2586 140.774 94.3058 140.797 94.3058C140.821 94.3058 140.797 94.3471 140.744 94.4061C140.691 94.4592 140.585 94.6007 140.508 94.7245C140.432 94.8425 140.29 94.9958 140.196 95.0607C140.031 95.1844 139.96 95.1845 136.208 95.1904L136.198 95.1904C134.092 95.1963 130.407 95.214 128.007 95.2258C125.606 95.2435 123.554 95.2553 123.454 95.2553C123.106 95.2494 122.965 95.2494 122.864 95.2553H120.842C119.786 95.2612 118.789 95.2671 118.618 95.273C118.229 95.2847 117.657 95.1727 117.451 95.0371C117.262 94.9132 117.132 94.6773 117.085 94.3471C117.056 94.1289 117.044 93.2208 117.062 91.5047C117.073 90.7853 117.02 90.5022 116.82 90.2191C116.755 90.1307 116.678 90.0717 116.649 90.0894C116.619 90.113 116.596 90.1012 116.596 90.0717C116.596 90.0422 102.16 90.0186 82.2923 90.0127C63.4216 90.0127 47.7707 90.0068 47.5112 90.0009C47.2518 90.0009 46.9628 90.0127 46.8626 90.0363C46.7682 90.054 46.6503 90.0776 46.6149 90.0776C46.5736 90.0776 46.5382 90.1012 46.5382 90.1307C46.5382 90.1602 46.5146 90.1661 46.4793 90.1484C46.4498 90.1307 46.4203 90.1425 46.4203 90.172C46.4203 90.2073 46.379 90.2368 46.3259 90.2368C46.2788 90.2368 46.2552 90.2604 46.2729 90.2958C46.2906 90.3253 46.2847 90.3548 46.2611 90.3548C46.2316 90.3548 46.1785 90.4078 46.1372 90.4786C46.09 90.5494 46.0842 90.5848 46.1195 90.5671C46.1549 90.5435 46.1431 90.5966 46.0959 90.685C46.0311 90.8147 46.0193 91.1627 46.0311 92.4129C46.0429 93.9697 45.9957 94.5181 45.8247 94.8543C45.748 95.0017 45.5888 95.155 45.4944 95.1727C45.4591 95.1786 45.3588 95.2022 45.2645 95.2199C44.9519 95.2788 26.6178 95.2376 23.7931 95.1668C23.3155 95.155 23.0442 95.1255 22.9852 95.0783C22.9322 95.0312 22.8909 95.0194 22.8909 95.043C22.8909 95.1373 22.5901 94.7599 22.5076 94.5653C22.4604 94.4533 22.425 94.3589 22.4309 94.3471C22.4368 94.3412 22.4073 94.2763 22.366 94.1997C22.2599 94.0051 22.2363 93.8459 22.2422 93.5097C22.2835 92.177 22.254 90.6555 22.1832 90.4727C22.1773 90.455 22.1714 90.4255 22.1773 90.402C22.1773 90.3843 22.1066 90.2899 22.0122 90.1956C21.8117 89.9951 21.5345 89.7651 21.5345 89.8004C21.5345 89.8122 21.452 89.7474 21.3517 89.6471C21.2456 89.5528 21.1335 89.4702 21.1041 89.4702C21.0687 89.4702 21.0628 89.4525 21.0805 89.4348C21.1335 89.3759 20.7325 89.0692 20.3551 88.8805C20.1782 88.792 19.9482 88.6151 19.848 88.4913C19.7418 88.3557 19.5059 88.1846 19.2819 88.0667C19.0578 87.9547 18.8219 87.7836 18.7157 87.648C18.6155 87.5242 18.3855 87.3414 18.2086 87.2411C17.9137 87.0701 17.1058 86.3447 17.212 86.3447C17.2356 86.3447 17.2297 86.3212 17.1943 86.2976C17.094 86.2327 16.6989 85.5958 16.7284 85.5545C16.7461 85.5368 16.7402 85.531 16.7166 85.5486C16.6635 85.5899 16.4041 85.1948 16.3392 84.9707C16.2802 84.7584 16.2154 84.0685 16.2095 83.5731C16.2095 83.1839 16.3097 81.3971 16.3805 80.6246C16.4454 79.8638 16.4572 79.7636 16.4925 79.5041C16.522 79.2859 16.5574 78.9557 16.5928 78.5134C16.5987 78.478 16.6282 78.4426 16.6635 78.4426C16.6989 78.4426 16.6871 78.4132 16.64 78.3837C16.5633 78.3306 16.5633 78.3247 16.64 78.3247C16.7166 78.3247 16.7166 78.3188 16.64 78.2657C16.5751 78.2245 16.5751 78.2068 16.6282 78.2068C16.6694 78.2068 16.693 78.1832 16.6694 78.1537C16.6518 78.1242 16.6635 78.0829 16.6989 78.0593C16.7402 78.0357 16.7402 77.9886 16.6989 77.9119C16.6635 77.847 16.6635 77.7881 16.693 77.7704C16.7225 77.7527 16.7402 77.6583 16.7343 77.5581C16.7284 77.4637 16.7343 77.3812 16.752 77.3812C16.7756 77.3812 16.7933 77.3104 16.7992 77.216C16.8169 76.9035 16.8405 76.7915 16.8994 76.7915C16.9289 76.7915 16.9348 76.7738 16.9171 76.7561C16.8935 76.7325 16.9348 76.6322 17.0056 76.532C17.3358 76.0602 17.8253 75.6061 18.2911 75.3526C18.4975 75.2405 18.6627 75.0813 18.816 74.8631C18.8573 74.7982 19.0578 74.6626 19.2583 74.5565C19.4824 74.4326 19.6888 74.2675 19.8067 74.1083C19.9187 73.9609 20.1016 73.8075 20.2785 73.725C20.5379 73.6011 20.7974 73.3888 20.9213 73.1883C20.9861 73.0881 21.3105 72.8699 21.3753 72.8876C21.3989 72.8935 21.4166 72.8758 21.4166 72.8463C21.4166 72.8168 21.4933 72.7637 21.5935 72.7225C21.6879 72.6812 21.7704 72.6281 21.7704 72.6045C21.7704 72.5868 21.8353 72.5279 21.9179 72.4866C21.9945 72.4453 22.0476 72.3922 22.0358 72.3686C22.024 72.345 22.0771 72.292 22.1537 72.2507C22.2304 72.2094 22.2835 72.1504 22.2658 72.121C22.2481 72.0974 22.2776 72.0738 22.3248 72.0738C22.3778 72.0738 22.4191 72.0502 22.4191 72.0266C22.4191 71.9971 22.5194 71.9264 22.6432 71.8615C22.7611 71.8025 22.8791 71.72 22.9027 71.6905C22.9263 71.6551 22.9499 71.6551 22.9499 71.6846C22.9499 71.7318 23.1739 71.5018 23.3626 71.26C23.4806 71.1067 23.746 70.9415 23.7931 70.9946C23.8167 71.0123 23.8344 71.0064 23.8344 70.971C23.8344 70.9356 23.9052 70.8767 23.9936 70.8413C24.088 70.8 24.2354 70.6644 24.3239 70.5346C24.4241 70.3931 24.6128 70.2398 24.7956 70.1513C24.9667 70.0629 25.2379 69.8565 25.3971 69.6855C25.5623 69.5144 25.8335 69.2904 26.0104 69.1842C26.1874 69.084 26.3643 68.966 26.3997 68.9306C26.8066 68.5355 27.0896 68.3055 27.3137 68.1876C27.4611 68.1109 27.6321 67.9753 27.697 67.8986C27.9329 67.6038 28.098 67.4682 28.3516 67.3443C28.499 67.2794 28.7113 67.1025 28.8293 66.961C28.9472 66.8195 29.1772 66.6308 29.3364 66.5482C29.6195 66.4067 30.0264 66.0411 30.0264 65.929C30.0264 65.8995 30.05 65.8877 30.0794 65.9054C30.1089 65.929 30.1443 65.9172 30.1561 65.8877C30.162 65.8582 30.3153 65.7403 30.4863 65.6224C30.6574 65.5103 30.7753 65.4454 30.7517 65.4867C30.7281 65.528 30.7871 65.4867 30.8873 65.3983C30.9817 65.3098 31.1114 65.1919 31.1763 65.1388C31.2412 65.0916 31.253 65.068 31.2058 65.0916C30.9817 65.1919 31.5655 64.7496 31.8427 64.6022C32.0137 64.5137 32.1965 64.3781 32.2555 64.3014C32.5149 63.9358 32.5857 63.865 32.7331 63.8061C32.969 63.7176 33.1459 63.6881 33.5351 63.694C34.0069 63.6999 34.0954 63.7117 34.0954 63.7707C34.0954 63.7943 34.1131 63.812 34.1425 63.8061C34.2015 63.7884 34.8148 63.9948 34.8974 64.0596C34.9327 64.0891 34.9799 64.095 34.9976 64.0714C35.0212 64.0537 35.0389 64.0773 35.0389 64.1304C35.0389 64.1835 35.0684 64.2424 35.1097 64.266C35.1509 64.2955 35.1568 64.2837 35.1215 64.2248C35.0979 64.1776 35.1922 64.2365 35.3337 64.3486C35.4753 64.4606 35.5696 64.5137 35.5401 64.4665C35.4989 64.3958 35.5048 64.3899 35.5755 64.4429C35.6817 64.5255 36.2006 64.6906 36.4955 64.7378C36.6193 64.7555 36.7962 64.8086 36.8906 64.8557C36.9849 64.9029 37.0911 64.9383 37.1265 64.9383C37.1618 64.9442 37.2857 65.0209 37.3977 65.1152C37.5098 65.2155 37.6336 65.2921 37.6749 65.2921C37.7162 65.2921 37.7516 65.3157 37.7516 65.3511C37.7516 65.3806 37.7692 65.4042 37.7987 65.4042C37.8223 65.3983 37.8518 65.4042 37.8695 65.4101C37.9285 65.4278 38.0818 65.4631 38.2823 65.5044C38.3943 65.5221 38.5359 65.5634 38.5948 65.5929C38.6479 65.6224 38.6951 65.6401 38.6951 65.6224C38.6951 65.6047 38.7835 65.6283 38.8956 65.6754C39.0017 65.7226 39.1079 65.7403 39.1315 65.7226C39.1492 65.699 39.1669 65.7167 39.1669 65.7521C39.1669 65.7934 39.1846 65.817 39.214 65.8111C39.2848 65.7875 39.6976 66.0116 39.674 66.0529C39.6563 66.0764 39.733 66.1295 39.8332 66.1708C39.9394 66.2121 40.1045 66.2828 40.2048 66.33C40.305 66.3713 40.4878 66.4244 40.6116 66.448C40.7355 66.4656 40.8947 66.5069 40.9714 66.5305C41.0421 66.56 41.1188 66.5659 41.1365 66.5482C41.1542 66.5246 41.1719 66.5364 41.1719 66.5718C41.1719 66.6013 41.2073 66.6308 41.2485 66.6308C41.3606 66.6308 41.7616 66.8313 41.7616 66.8902C41.7616 66.9197 41.797 66.9374 41.8382 66.9256C41.8736 66.9197 41.9031 66.9551 41.8913 67.0023C41.8795 67.0495 41.8913 67.073 41.9149 67.0436C41.9385 67.02 42.0152 67.0377 42.08 67.0789C42.2039 67.1556 42.7346 67.3325 42.9941 67.3856C43.0707 67.3974 43.2712 67.4564 43.4364 67.5153C43.6015 67.5684 43.7489 67.6156 43.7666 67.6215C43.8197 67.6215 44.2089 67.9104 44.2266 67.9576C44.2384 67.9871 44.2737 67.993 44.3032 67.9694C44.3327 67.9517 44.3563 67.9694 44.3563 68.0048C44.3563 68.0402 44.3799 68.052 44.4153 68.0343C44.4507 68.0166 44.4742 68.0284 44.4742 68.0579C44.4742 68.0932 44.4919 68.1168 44.5214 68.1168C44.545 68.1109 44.5745 68.1168 44.5922 68.1227C44.6099 68.1286 44.6747 68.1463 44.7396 68.1581L44.7862 68.1694C44.9503 68.2091 45.0359 68.2299 45.0522 68.2407C45.0581 68.2525 45.0934 68.2643 45.1229 68.2702C45.1583 68.2761 45.1878 68.2878 45.1996 68.2996C45.2106 68.3107 45.2835 68.3269 45.4665 68.3675L45.5062 68.3763C45.8011 68.4353 45.9485 68.4942 45.9485 68.5473C45.9485 68.5768 45.9721 68.5827 46.0075 68.565C46.0429 68.5473 46.0665 68.5591 46.0665 68.5945C46.0665 68.6299 46.09 68.6476 46.1195 68.6299C46.149 68.6122 46.2375 68.6594 46.32 68.736C46.4026 68.8127 46.4852 68.8599 46.5028 68.8422C46.5205 68.8245 46.5382 68.8422 46.5382 68.8835C46.5382 68.9247 46.5618 68.9365 46.5972 68.9188C46.6326 68.9011 46.6562 68.9129 46.6562 68.9483C46.6562 68.9837 46.6857 68.9955 46.7151 68.9778C46.7505 68.9601 46.7741 68.9719 46.7741 69.0014C46.7741 69.0368 46.7918 69.0604 46.8213 69.0545C46.8449 69.0486 47.01 69.0781 47.1869 69.1252C47.3638 69.1724 47.523 69.2137 47.5407 69.2137C47.8238 69.2668 48.2661 69.4496 48.384 69.5616C48.4725 69.6442 48.5432 69.6914 48.5432 69.6737C48.5432 69.656 48.5904 69.6914 48.6494 69.7503C48.8617 69.9803 49.5929 69.9567 49.817 69.709C49.8701 69.6501 49.9409 69.597 49.9762 69.597C50.0057 69.597 50.0765 69.5498 50.1296 69.4909C50.2416 69.3729 50.4421 69.255 50.8726 69.0604C50.9728 69.0132 51.191 68.8422 51.3679 68.6712C51.539 68.5001 51.6982 68.3645 51.7218 68.3704C51.7395 68.3704 51.7689 68.3645 51.7866 68.3586C51.8043 68.3527 51.8574 68.3409 51.9105 68.3291C52.0638 68.2996 52.5061 68.0048 52.742 67.7689C52.8658 67.651 53.025 67.5212 53.0958 67.4858C53.3081 67.3797 53.5794 67.2794 53.6324 67.2853C53.656 67.2912 53.6737 67.2677 53.6737 67.2264C53.6737 67.191 53.6914 67.1792 53.715 67.1969C53.7327 67.2205 53.8565 67.1143 53.9922 66.9669C54.1868 66.7487 54.4698 66.5541 54.6762 66.5069C54.8472 66.4597 55.1952 66.2357 55.4193 66.0175C55.6964 65.758 56.1859 65.469 56.3451 65.469C56.3923 65.469 56.5751 65.3275 56.7461 65.1565C56.9466 64.9619 57.1766 64.7968 57.3594 64.7319C57.5245 64.667 57.6896 64.5845 57.7309 64.5432C57.7722 64.5019 57.8312 64.4665 57.8548 64.4665C57.8783 64.4665 57.9904 64.3722 58.1083 64.2601C58.3973 63.9948 58.7334 63.7766 58.9457 63.7235C59.0401 63.6999 59.2465 63.5525 59.4057 63.3992C59.5826 63.2222 59.8834 63.0217 60.1841 62.8802C60.4731 62.7387 60.7797 62.5382 60.9389 62.379C61.1571 62.1608 61.3281 62.0487 61.5758 61.9603C61.8294 61.8718 62.0476 61.7244 62.1832 61.5593C62.3188 61.3882 63.0088 60.9755 63.1385 60.9872C63.1798 60.9931 63.2742 60.9106 63.6339 60.5921C63.7872 60.4565 64.088 60.2678 64.3003 60.1675C64.66 60.0083 65.0551 59.6899 65.0551 59.5602C65.0551 59.5307 65.0787 59.5189 65.1082 59.5366C65.1377 59.5602 65.173 59.5543 65.1848 59.5307C65.1907 59.5012 65.3912 59.3891 65.6271 59.2712C65.863 59.1533 66.034 59.0884 66.0163 59.1238C65.9927 59.1591 66.1284 59.0412 66.3171 58.8525C66.4999 58.6697 66.7358 58.4928 66.8419 58.4515C67.2193 58.31 67.4257 58.1802 67.6262 57.962C67.7914 57.791 68.3221 57.449 68.4754 57.4195C68.4931 57.4195 68.5993 57.3664 68.7113 57.3016C68.8233 57.2367 68.9413 57.1954 68.9767 57.2072C69.0062 57.2131 69.0179 57.2072 68.9944 57.1836C68.9177 57.1011 69.4131 56.6942 69.7197 56.588C69.9025 56.5231 70.1502 56.3639 70.3271 56.1988C70.4922 56.0455 70.6514 55.9216 70.6809 55.9216C70.7104 55.9216 70.7517 55.9039 70.7694 55.8745C70.7871 55.8391 70.9817 55.7329 71.1999 55.6327C71.4299 55.5265 71.7188 55.326 71.8898 55.155C72.1316 54.9132 72.4972 54.7068 72.6034 54.7481C72.6388 54.7599 72.8157 54.6184 73.1813 54.2822C73.3287 54.1407 73.482 54.0287 73.5233 54.0287C73.5646 54.0287 73.6413 53.9874 73.6884 53.9343C73.7415 53.8871 73.7828 53.8577 73.7828 53.8812C73.7828 53.8989 73.942 53.8341 74.1366 53.7279C74.3312 53.6277 74.4905 53.5156 74.4905 53.492C74.4905 53.4154 74.8974 53.0616 75.0094 53.0439C75.2453 52.9967 75.6994 53.0321 75.8527 53.1087C75.947 53.1559 76.006 53.1677 75.9883 53.1323C75.9117 53.0144 76.295 53.2974 76.5014 53.5156C76.6134 53.6336 76.7255 53.7161 76.749 53.6925C76.7726 53.6749 76.7903 53.6925 76.7903 53.7338C76.7903 53.7751 76.808 53.7987 76.8257 53.7751C76.8493 53.7574 76.9554 53.7751 77.0616 53.8223C77.1736 53.8695 77.2798 53.9048 77.2916 53.9048C77.3093 53.9107 77.4154 53.952 77.5334 53.9992C77.6513 54.0464 77.7633 54.0876 77.7869 54.0876C77.8046 54.0876 77.9049 54.1643 77.9992 54.2528C78.2764 54.5122 78.4769 54.6243 78.9251 54.7776C79.3261 54.9132 79.6858 55.1255 79.9571 55.3791C80.0278 55.4499 80.1222 55.5029 80.1694 55.5029C80.2106 55.5029 80.2755 55.5324 80.305 55.5619C80.3404 55.5973 80.4229 55.6386 80.4937 55.6504C80.5645 55.6681 80.6765 55.6917 80.7355 55.7034C80.9242 55.7447 81.2249 55.9216 81.567 56.1811C81.8677 56.417 82.1272 56.5467 82.2333 56.5172C82.2569 56.5113 82.2746 56.529 82.2746 56.5644C82.2746 56.5998 82.2923 56.6175 82.3218 56.6116C82.4751 56.5762 82.9233 56.7826 83.1238 56.9831C83.342 57.2013 83.4363 57.2662 83.4776 57.2308C83.4953 57.2072 83.513 57.2249 83.513 57.2603C83.513 57.3134 83.6663 57.3959 83.8079 57.4195C84.0968 57.4667 84.5686 57.6908 84.775 57.8677C84.9165 57.9915 85.0463 58.0741 85.0698 58.0564C85.0875 58.0387 85.1052 58.0446 85.1052 58.08C85.1052 58.1507 85.7657 58.4515 85.9131 58.4515C85.9662 58.4515 86.0606 58.4987 86.1254 58.5517C86.2139 58.6284 86.2316 58.6343 86.1962 58.5694C86.1372 58.4574 86.3554 58.6402 86.6326 58.9233C86.7446 59.0353 86.8095 59.0884 86.7859 59.0412C86.7446 58.9704 86.7505 58.9645 86.8213 59.0235C86.8685 59.0589 87.0925 59.1591 87.3166 59.2476C87.9004 59.4658 88.2366 59.6368 88.1953 59.6958C88.1776 59.7253 88.1894 59.7489 88.2189 59.7489C88.2425 59.7489 88.325 59.8019 88.3958 59.8668C88.4666 59.9376 88.5255 59.9729 88.5255 59.9553C88.5255 59.9376 88.5845 59.9612 88.6612 60.0142C88.7378 60.0614 88.8204 60.085 88.8381 60.0614C88.8617 60.0437 88.8794 60.0555 88.8794 60.0909C88.8794 60.1322 88.8971 60.1558 88.9265 60.1499C89.0386 60.1086 89.7344 60.427 89.9114 60.598C90.1119 60.7985 90.4716 60.9872 90.7959 61.0757C91.1851 61.1819 91.4505 61.3234 91.6628 61.5298C91.881 61.7421 91.9753 61.801 92.5238 62.0015C92.7302 62.0782 92.9484 62.1844 93.0132 62.2433C93.0722 62.3023 93.1253 62.3318 93.1253 62.3082C93.1253 62.2846 93.1724 62.3082 93.2314 62.3613C93.2904 62.4202 93.3612 62.4438 93.3788 62.4202C93.4024 62.4025 93.4201 62.4143 93.4201 62.4556C93.4201 62.491 93.4909 62.5559 93.5852 62.5913C93.7916 62.6738 94.1278 62.6915 94.1278 62.6207C94.1278 62.5854 94.1455 62.5795 94.1632 62.5972C94.2044 62.6384 94.5406 62.2905 94.5406 62.2079C94.5406 62.1844 94.688 62.0723 94.8649 61.9544C95.0418 61.8423 95.2541 61.6418 95.3367 61.518C95.4959 61.2644 96.0089 60.8575 96.0974 60.9106C96.1269 60.9342 96.1328 60.9165 96.1092 60.8811C96.0856 60.8398 96.0915 60.8103 96.1151 60.8103C96.1446 60.8103 96.2153 60.716 96.2802 60.598C96.3451 60.4742 96.5338 60.2914 96.7048 60.1734C96.8758 60.0614 97.094 59.8491 97.1884 59.6958C97.2945 59.5307 97.4773 59.3596 97.6542 59.2535C97.8253 59.1533 98.0022 58.9822 98.1024 58.8289C98.2027 58.6756 98.4032 58.481 98.586 58.363C98.757 58.251 98.9693 58.0505 99.0518 57.9208C99.1403 57.7851 99.3349 57.5964 99.4882 57.5021C99.7654 57.3252 99.8244 57.2721 100.019 56.9477C100.078 56.8475 100.202 56.7295 100.296 56.6824C100.55 56.5526 100.668 56.4465 100.856 56.1693C100.951 56.0337 101.157 55.8332 101.31 55.727C101.635 55.5029 101.676 55.4676 101.806 55.2376C101.859 55.1373 102.053 54.9545 102.236 54.8307C102.419 54.7068 102.631 54.5004 102.714 54.3766C102.791 54.2469 102.956 54.0817 103.08 54.0051C103.374 53.8164 103.545 53.6454 103.652 53.439C103.699 53.3446 103.887 53.1736 104.058 53.0616C104.253 52.9377 104.454 52.7431 104.577 52.5603C104.684 52.3952 104.796 52.2595 104.819 52.2595C104.931 52.2595 105.32 51.9293 105.48 51.6934C105.639 51.4575 105.957 51.2158 106.058 51.2452C106.087 51.2511 106.093 51.2335 106.069 51.1981C106.052 51.1686 106.063 51.1391 106.093 51.1391C106.128 51.1391 106.246 51.0153 106.358 50.856C106.47 50.7027 106.677 50.4963 106.824 50.3902C106.972 50.2899 107.178 50.0894 107.284 49.942C107.396 49.7946 107.579 49.6176 107.691 49.5469C107.809 49.4761 107.98 49.3228 108.074 49.2108C108.175 49.0987 108.34 48.9218 108.452 48.8156C108.859 48.4441 109.649 47.6834 109.95 47.3709L109.95 47.3707C110.121 47.1997 110.333 46.9875 110.433 46.8991C110.528 46.8165 110.793 46.5571 111.029 46.333C111.259 46.103 111.731 45.6548 112.079 45.3305C112.432 45.0061 112.922 44.5403 113.175 44.2985C113.718 43.7736 113.865 43.6498 113.948 43.6498C113.977 43.6498 113.995 43.6262 113.977 43.5967C113.954 43.5672 113.96 43.5318 113.983 43.5201C114.013 43.5142 114.131 43.3903 114.255 43.2488C114.372 43.1132 114.473 43.0129 114.473 43.0306C114.473 43.0542 114.538 42.9952 114.62 42.9068C114.703 42.8183 114.768 42.7711 114.768 42.7947C114.768 42.8183 114.827 42.7652 114.897 42.6709C115.086 42.4173 115.599 41.9455 115.788 41.8453C115.876 41.7981 115.947 41.745 115.947 41.7273C115.947 41.7096 115.912 41.7155 115.876 41.7391C115.676 41.863 116.189 41.344 116.442 41.1671C116.602 41.0551 116.773 40.9017 116.826 40.8192C116.991 40.5597 117.091 40.4595 117.362 40.2708C117.628 40.082 117.828 39.8874 117.834 39.799C117.834 39.7282 118.082 39.4923 118.341 39.3213C118.477 39.2388 118.642 39.0619 118.713 38.9321C118.913 38.5724 119.267 38.4309 119.562 38.5842C119.774 38.6962 120.6 39.5867 120.759 39.8757C120.842 40.0231 121.013 40.2118 121.142 40.3061C121.349 40.4477 121.673 40.8723 121.62 40.9253C121.608 40.9371 121.697 41.0315 121.821 41.1317C122.227 41.4856 122.345 41.6153 122.463 41.8512C122.528 41.975 122.693 42.1696 122.835 42.2758C122.976 42.3819 123.071 42.4704 123.041 42.4704C123.018 42.4704 123.024 42.494 123.059 42.5175C123.094 42.5411 123.171 42.6473 123.224 42.7534C123.283 42.8655 123.454 43.0778 123.601 43.2311C123.755 43.3844 123.932 43.5849 123.997 43.6793C124.185 43.9505 124.415 44.1805 124.492 44.1805C124.533 44.1805 124.551 44.2041 124.533 44.2336C124.462 44.3456 124.875 44.2336 124.981 44.1098C125.158 43.9093 125.223 43.7206 125.294 43.2075C125.365 42.7239 125.388 42.6119 125.471 42.4527C125.512 42.3642 125.53 42.3053 125.5 42.3229C125.471 42.3406 125.512 42.2345 125.595 42.0871C125.671 41.9337 125.707 41.8335 125.671 41.8571C125.636 41.8748 125.654 41.8276 125.707 41.7391C125.766 41.6566 125.789 41.5858 125.772 41.5858C125.748 41.5858 125.748 41.5504 125.777 41.5091C125.801 41.4738 125.825 41.4266 125.825 41.4089Z" fill="white"/>
<path d="M58.4217 17.0135C58.4158 17.0194 58.0797 17.043 57.6728 17.0607C56.8413 17.102 56.5287 17.1315 56.3164 17.1904C56.2339 17.214 56.1336 17.2376 56.0923 17.2494C56.0452 17.2553 55.9685 17.2848 55.9154 17.3084C55.7208 17.3909 54.9365 17.6032 54.6063 17.6622C54.4942 17.6799 54.3232 17.7094 54.223 17.7271C53.8868 17.786 53.4563 17.9806 53.1379 18.2165C52.9669 18.3463 52.8018 18.4583 52.7723 18.4583C52.7015 18.4701 52.672 18.476 52.4067 18.5527C52.1118 18.6411 51.6931 18.8888 51.5575 19.0598C51.4041 19.2485 51.0326 19.5198 50.9914 19.4726C50.9678 19.4549 50.9501 19.4608 50.9501 19.4903C50.9501 19.5257 50.8439 19.5964 50.7201 19.6495C50.4665 19.7616 50.3486 19.9857 50.266 20.4633C50.2188 20.7641 50.2129 59.0952 50.2601 59.3193C50.2778 59.4018 50.2955 59.4844 50.2955 59.5021C50.3073 59.6023 50.5314 59.7792 50.6788 59.8028C50.8262 59.8323 50.8911 59.7969 51.1211 59.5552C51.2862 59.3841 51.5398 59.2072 51.7403 59.1188C51.929 59.0362 52.1885 58.8593 52.3182 58.7237C52.4538 58.5821 52.7723 58.3757 53.0789 58.2224C53.3856 58.0691 53.6804 57.8745 53.7925 57.7506C53.9045 57.6209 54.1699 57.4499 54.4294 57.3261C54.6711 57.214 54.9483 57.0371 55.0486 56.9309C55.2608 56.701 55.5852 56.4946 56.0216 56.3177C56.228 56.2292 56.4108 56.0995 56.5228 55.9579C56.6231 55.8282 56.8236 55.6749 56.9946 55.6041C57.1597 55.5274 57.3484 55.4449 57.4192 55.4095C57.4899 55.38 57.661 55.2444 57.7966 55.1146C58.0325 54.8906 58.8699 54.4011 58.9288 54.4601C58.9406 54.4778 59.0704 54.3598 59.2119 54.2006C59.436 53.947 59.8547 53.6522 59.8547 53.7465C59.8547 53.8232 60.2439 53.5696 60.4975 53.3337C60.7746 53.0743 61.5236 52.6379 61.5825 52.6968C61.6002 52.7145 61.7477 52.5966 61.901 52.4374C62.184 52.1425 62.3668 52.0246 62.7384 51.883C62.8504 51.8418 63.104 51.6648 63.2986 51.4879C63.6052 51.2167 64.0003 50.9749 64.189 50.9454C64.3011 50.9336 64.5429 50.7508 64.7198 50.5444C64.82 50.4265 65.0854 50.2495 65.3685 50.1198C65.6338 49.9901 65.9582 49.7778 66.1115 49.6303C66.2589 49.4888 66.5125 49.3119 66.6717 49.2411C67.232 48.9876 67.3145 48.9345 67.4619 48.734C67.5563 48.6043 67.7273 48.4863 67.9337 48.4038C68.3288 48.2445 68.488 48.1443 68.7593 47.8966C69.1072 47.5841 69.2488 47.4897 69.6026 47.3482C69.809 47.2597 70.0272 47.1123 70.1569 46.9767C70.2807 46.8351 70.5284 46.67 70.7879 46.5521C71.0474 46.4341 71.3481 46.2336 71.5368 46.0567C71.7314 45.8739 72.0027 45.697 72.2386 45.6026C72.4804 45.5024 72.7104 45.3491 72.8578 45.1898C72.9875 45.0542 73.2175 44.8596 73.3708 44.7593C73.5831 44.6178 73.6598 44.5235 73.7011 44.3524C73.7836 44.0045 73.7482 17.8273 73.6657 17.5384C73.589 17.2671 73.4062 17.043 73.2529 17.0312C73.1114 17.0194 58.4335 17.0076 58.4217 17.0135Z" fill="#0282FD"/>
<path d="M76.9268 17.0253C76.7617 17.0607 76.6084 17.2081 76.4963 17.4499C76.4138 17.6386 76.402 18.8652 76.3902 31.0427L76.3843 44.4291L76.5081 44.5942C76.573 44.6886 76.7263 44.8183 76.8384 44.8832C76.9504 44.954 77.1568 45.1073 77.2924 45.2311C77.4222 45.355 77.6404 45.4847 77.7701 45.5201C77.8998 45.5496 78.1121 45.6262 78.236 45.6793C78.3598 45.7324 78.4777 45.7737 78.4954 45.7678C78.5131 45.7678 78.6488 45.868 78.7903 45.9978C79.0851 46.2631 79.3977 46.4459 79.6395 46.4872C79.8872 46.5344 80.3825 46.788 80.5889 46.9826C80.8012 47.1772 81.0843 47.3187 81.4971 47.4425C81.6563 47.4897 81.8981 47.6195 82.0396 47.7315C82.3285 47.9615 82.759 48.2328 82.8652 48.2563C82.9065 48.2681 82.9831 48.2917 83.0303 48.3094C83.0775 48.3271 83.2367 48.3861 83.39 48.4392C83.5375 48.4922 83.7556 48.6279 83.8795 48.7399C84.1743 49.0112 84.7464 49.2883 84.9351 49.2471C84.9587 49.2412 84.9763 49.2647 84.9763 49.306C84.9763 49.3414 84.994 49.3591 85.0117 49.3355C85.0707 49.2824 85.3656 49.4476 85.6191 49.6775C85.8314 49.8662 86.2855 50.1021 86.5155 50.1375C86.5686 50.1493 86.6629 50.1906 86.7219 50.2378C86.7985 50.3026 86.8162 50.3085 86.7809 50.2437C86.7042 50.1257 87.0285 50.338 87.3057 50.5975C87.5121 50.7862 87.978 51.0044 88.5382 51.1695C88.6561 51.199 88.7564 51.2757 89.0512 51.5469C89.1456 51.6354 89.3402 51.7415 89.4758 51.7946C89.6115 51.8418 89.8532 51.9302 90.0125 51.9833C90.1776 52.0423 90.4665 52.2192 90.6552 52.3725C90.8499 52.5258 91.1034 52.6792 91.2214 52.7204C91.3393 52.7558 91.5929 52.8738 91.7875 52.974C91.9821 53.0743 92.1767 53.1627 92.2298 53.1686C92.3477 53.1863 93.2382 52.7853 93.3502 52.6674C93.4033 52.6084 93.5035 52.4669 93.5802 52.343C93.6569 52.2192 93.8574 52.0305 94.0343 51.9184C94.2053 51.8064 94.3881 51.6413 94.4353 51.5528C94.565 51.3228 94.7124 51.1636 94.8894 51.0693C95.0899 50.969 95.2609 50.798 95.4319 50.5326C95.5027 50.4206 95.656 50.2673 95.768 50.1906C96.0806 49.9842 96.1985 49.8721 96.3518 49.6481C96.4285 49.536 96.6231 49.3473 96.7882 49.2353C96.9533 49.1232 97.1656 48.9227 97.2541 48.7871C97.3426 48.6573 97.5372 48.4745 97.6846 48.3802C97.832 48.2858 98.0207 48.0971 98.0974 47.9615C98.2212 47.7551 98.6576 47.3423 98.6576 47.4307C98.6576 47.5074 98.9584 47.1949 99.0999 46.9708C99.1883 46.8351 99.3535 46.6582 99.4714 46.5875C99.5952 46.5108 99.7427 46.3516 99.8075 46.2159C99.9196 45.986 99.9196 45.7324 99.9255 31.9391C99.9255 18.6234 99.9196 17.8804 99.8193 17.5561C99.6306 16.9428 100.957 17.0076 88.2197 17.0076C82.075 17.0076 76.9917 17.0135 76.9268 17.0253Z" fill="#0282FD"/>
<path d="M102.585 17.7153C102.632 17.4382 102.809 17.1315 102.968 17.0549C103.069 17.0018 103.346 16.99 103.906 17.0077C105.469 17.0608 106.294 17.1079 106.294 17.1551C106.294 17.161 106.412 17.1728 106.56 17.1846C106.707 17.1964 106.896 17.2318 106.99 17.2672C107.079 17.3026 107.149 17.3143 107.149 17.2966C107.149 17.2731 107.191 17.2908 107.238 17.332C107.285 17.3733 107.326 17.3851 107.326 17.3674C107.326 17.3438 107.385 17.3615 107.462 17.3969C107.533 17.4382 107.645 17.4736 107.71 17.4795C108.058 17.5149 109.09 17.7507 109.42 17.8746C109.52 17.91 109.691 18.0102 109.803 18.0987C110.057 18.2933 110.357 18.4525 110.865 18.6648C111.118 18.765 111.348 18.9184 111.543 19.1189C111.784 19.3606 111.932 19.4432 112.339 19.5906C112.616 19.685 112.934 19.7734 113.046 19.7793C113.159 19.7911 113.265 19.8029 113.282 19.8088C113.3 19.8147 113.341 19.8147 113.371 19.8029C113.406 19.797 118.147 19.7852 123.915 19.7793C131.274 19.7734 134.441 19.7911 134.53 19.8324C134.748 19.9444 134.954 20.4811 134.931 20.8998C134.925 20.9941 134.872 21.2713 134.807 21.519C134.748 21.7608 134.683 22.0556 134.665 22.1677C134.618 22.4448 134.583 22.6276 134.541 22.7574C134.494 22.9048 134.447 23.1289 134.441 23.2114C134.435 23.2527 134.418 23.2881 134.394 23.2881C134.37 23.2881 134.353 23.3235 134.353 23.3589C134.353 23.4001 134.329 23.5417 134.305 23.6714C134.282 23.8011 134.258 23.9722 134.247 24.0547C134.229 24.2022 134.17 24.609 134.129 24.8803C134.117 24.9629 134.087 25.2341 134.07 25.4936C134.052 25.7472 134.028 26.0244 134.017 26.1128C133.999 26.1954 133.969 26.3841 133.952 26.5315C133.928 26.6789 133.899 26.8382 133.893 26.8853C133.887 26.9325 133.857 27.0917 133.834 27.2392C133.769 27.6343 133.751 27.7227 133.545 28.4775C133.45 28.8137 133.409 29.0083 133.356 29.3621C133.344 29.4742 133.315 29.6334 133.303 29.7159C133.291 29.7985 133.262 30.0462 133.238 30.2762C133.185 30.7715 133.167 30.9248 133.156 30.9248C133.15 30.9248 133.138 31.031 133.126 31.1607C133.097 31.5558 133.038 32.0984 133.008 32.2517C132.949 32.5642 132.92 32.7058 132.819 33.1362C132.766 33.378 132.725 33.5962 132.731 33.6198C132.737 33.6493 132.719 33.667 132.69 33.667C132.66 33.667 132.643 33.7142 132.654 33.7672C132.66 33.8262 132.648 33.897 132.625 33.9324C132.601 33.9618 132.56 34.1211 132.542 34.2803C132.519 34.4395 132.489 34.5869 132.477 34.6046C132.471 34.6223 132.442 34.7874 132.418 34.9643C132.401 35.1413 132.371 35.3536 132.359 35.4361C132.348 35.5187 132.318 35.7546 132.3 35.9669C132.283 36.1791 132.253 36.415 132.242 36.4976C132.23 36.5802 132.2 36.7924 132.183 36.9694C132.165 37.1463 132.135 37.3586 132.124 37.4411C132.112 37.5237 132.088 37.6947 132.065 37.8244C132.047 37.9601 132.017 38.1311 132 38.2077C131.888 38.7267 131.899 38.6972 131.829 38.9272C131.805 39.0215 131.764 39.0923 131.734 39.0923C131.705 39.0923 131.687 39.11 131.693 39.1336C131.699 39.1631 131.669 39.2574 131.628 39.3577L126.044 40.4486C126.085 40.1597 126.126 39.9474 126.138 39.9474C126.15 39.9474 126.179 39.8236 126.209 39.6525C126.221 39.5877 126.244 39.5051 126.262 39.4756C126.285 39.4402 126.291 39.3695 126.285 39.3105C126.274 39.2574 126.291 39.2103 126.321 39.2103C126.356 39.2103 126.362 39.1808 126.344 39.1513C126.327 39.1159 126.339 39.0923 126.38 39.0923C126.421 39.0923 126.433 39.0746 126.415 39.051C126.392 39.0333 126.421 38.9626 126.474 38.8977C126.533 38.8328 126.551 38.7916 126.515 38.8152C126.48 38.8387 126.498 38.7562 126.557 38.6323C126.616 38.5144 126.681 38.3198 126.698 38.2077C126.716 38.0957 126.74 37.9365 126.757 37.8539C126.775 37.7714 126.798 37.5768 126.816 37.4175C126.863 36.9045 126.999 36.1497 127.111 35.731C127.135 35.6484 127.152 35.5482 127.152 35.5069C127.158 35.4715 127.182 35.4361 127.211 35.4361C127.235 35.4361 127.253 35.4184 127.247 35.3889C127.241 35.3654 127.27 35.2533 127.312 35.1413C127.359 35.0292 127.4 34.9172 127.406 34.8877C127.412 34.8641 127.424 34.8405 127.435 34.8287C127.447 34.811 127.494 34.5987 127.506 34.4749C127.512 34.4218 127.536 34.3746 127.553 34.3746C127.571 34.3746 127.589 34.3275 127.595 34.2685C127.595 34.2154 127.618 34.1034 127.636 34.0208C127.671 33.8734 127.707 33.6493 127.76 33.2247C127.771 33.095 127.801 32.924 127.819 32.8414C127.836 32.7588 127.866 32.5996 127.884 32.4876C127.925 32.2222 128.06 31.6738 128.131 31.4851C128.161 31.4025 128.19 31.3199 128.196 31.2964C128.202 31.2728 128.249 31.1548 128.296 31.031C128.349 30.913 128.402 30.7656 128.414 30.7066C128.438 30.6005 128.461 30.4826 128.526 30.1877C128.585 29.8987 128.615 29.7395 128.65 29.48C128.721 28.9198 128.78 28.5837 128.88 28.1827L128.998 27.7109L128.998 27.7106C129.01 27.6635 129.022 27.6165 129.022 27.6048C129.028 27.5989 129.028 27.5753 129.033 27.5458C129.033 27.5222 129.075 27.4632 129.122 27.4102C129.169 27.3571 129.187 27.304 129.169 27.2863C129.151 27.2686 129.199 27.133 129.269 26.9915C129.434 26.673 129.446 26.6376 129.47 26.2425C129.488 25.8356 129.399 25.4995 129.234 25.3403C129.075 25.187 128.975 25.1634 128.585 25.1752C128.149 25.187 109.614 25.1752 109.084 25.1634C108.647 25.1516 108.293 25.2459 108.364 25.358C108.376 25.3816 108.364 25.417 108.329 25.4405C108.293 25.4641 108.317 25.5467 108.4 25.6646C108.47 25.7649 108.494 25.8239 108.441 25.7944C108.376 25.7531 108.376 25.7708 108.453 25.8592C108.5 25.9182 108.594 26.0892 108.653 26.2366C108.759 26.4843 108.883 26.6318 109.207 26.8971C109.278 26.9561 109.355 27.0033 109.378 27.0033C109.402 27.0033 109.514 27.1507 109.62 27.3276C109.732 27.5104 109.986 27.8348 110.18 28.053C110.381 28.2711 110.64 28.5778 110.752 28.7429C110.859 28.9021 110.971 29.0496 111 29.0555C111.024 29.0673 111.024 29.1085 111.006 29.138C110.982 29.1734 110.988 29.1852 111.024 29.1675C111.059 29.1439 111.195 29.2324 111.33 29.3621C111.466 29.4918 111.554 29.598 111.531 29.598C111.507 29.598 111.519 29.6216 111.56 29.6511C111.602 29.6747 111.643 29.7395 111.655 29.7926C111.667 29.887 111.879 30.111 112.168 30.3351C112.25 30.4 112.398 30.5887 112.492 30.7597C112.586 30.9248 112.781 31.1489 112.923 31.261C113.064 31.3671 113.247 31.5735 113.33 31.7209C113.406 31.8684 113.554 32.0984 113.648 32.2399C113.837 32.5112 113.831 32.6173 113.624 32.8473C113.56 32.924 113.394 33.1303 113.265 33.3014C113.135 33.4724 112.911 33.6965 112.769 33.7967C112.622 33.8911 112.415 34.0975 112.309 34.2449C112.203 34.3982 111.967 34.6223 111.796 34.7521C111.619 34.8759 111.425 35.0646 111.354 35.1707C111.283 35.2769 111.124 35.442 111 35.5305C110.876 35.6248 110.699 35.7899 110.599 35.8961C110.505 36.0081 110.334 36.185 110.222 36.2853C110.045 36.4445 109.066 37.3939 107.598 38.8269C107.368 39.051 106.731 39.6643 106.182 40.1833C105.15 41.1563 103.947 42.3534 103.511 42.8311C103.375 42.9785 103.222 43.1082 103.169 43.1082C103.122 43.1141 103.045 43.12 103.01 43.1259C102.892 43.1436 102.732 43.0493 102.638 42.9018C102.556 42.778 102.544 41.4158 102.55 30.3292C102.55 23.4886 102.567 17.8097 102.585 17.7153Z" fill="#0285FA"/>
<path d="M130.708 41.0442C130.685 41.0796 130.679 41.115 130.696 41.1327C130.708 41.1504 130.738 41.1209 130.755 41.0678C130.797 40.9676 130.761 40.9499 130.708 41.0442Z" fill="black"/>
<path d="M46.828 23.2409C46.7277 23.3411 46.6452 23.459 46.6452 23.4885C46.6393 23.5711 46.3739 23.8777 46.3031 23.8777C46.2088 23.8777 45.8137 24.3495 45.849 24.4085C45.8726 24.4439 45.8608 24.4675 45.8255 24.4675C45.796 24.4675 45.7488 24.5264 45.7252 24.5972C45.6839 24.7328 45.2888 25.1633 45.2888 25.0749C45.2888 25.0513 45.165 25.2341 45.0176 25.4818C44.8701 25.7353 44.646 26.042 44.5163 26.1776C44.3925 26.3073 44.2981 26.4135 44.3158 26.4135C44.3335 26.4135 44.2922 26.4666 44.2273 26.5314C44.1684 26.5904 44.0445 26.785 43.962 26.956C43.8735 27.127 43.6907 27.3747 43.5551 27.5045C43.4135 27.6342 43.2189 27.8996 43.1187 28.1001C43.0184 28.2947 42.8297 28.5482 42.7 28.6662C42.5703 28.7782 42.3934 29.0141 42.3049 29.191C42.2164 29.3679 42.0926 29.5802 42.0336 29.6687C41.9688 29.763 41.9393 29.8338 41.957 29.8338C41.9806 29.8338 41.8921 29.9223 41.7565 30.0225C41.6031 30.1464 41.4439 30.3704 41.3083 30.6358C41.1727 30.9012 41.0134 31.1135 40.8778 31.2196C40.7422 31.3199 40.5888 31.5263 40.4709 31.774C40.3648 31.9862 40.1466 32.3106 39.9755 32.4875C39.8104 32.6644 39.5863 32.977 39.4743 33.1775C39.3563 33.378 39.1264 33.6846 38.9553 33.8615C38.7607 34.0561 38.6192 34.2566 38.5956 34.3746C38.572 34.4925 38.4364 34.6871 38.2713 34.8522C38.1121 35.0115 37.9351 35.2238 37.8762 35.3299C37.8172 35.436 37.7464 35.5422 37.7229 35.5599C37.6934 35.5776 37.6698 35.6189 37.6698 35.6483C37.6639 35.7486 37.3926 36.1319 37.1921 36.3324C37.0801 36.4386 36.8973 36.7098 36.7793 36.9398C36.6614 37.1757 36.4845 37.4234 36.3665 37.5118C36.2545 37.6003 36.0776 37.8362 35.9773 38.0426C35.8712 38.249 35.6648 38.5497 35.5114 38.7089C35.2048 39.0392 35.134 39.1394 34.9866 39.4579C34.9276 39.5817 34.8628 39.682 34.8333 39.682C34.8097 39.682 34.7979 39.7055 34.8156 39.735C34.8333 39.7645 34.7094 39.906 34.5325 40.0594C34.332 40.2304 34.1728 40.4309 34.0961 40.6137C34.0254 40.7729 33.8544 41.0206 33.7187 41.1621C33.5772 41.3037 33.4298 41.4865 33.3885 41.569C33.07 42.1823 32.5039 42.1941 32.1855 41.5926C32.1088 41.4452 31.9437 41.2742 31.7727 41.1621C31.6194 41.0619 31.413 40.8614 31.3186 40.7198C31.2184 40.5783 31.012 40.3896 30.8645 40.3012C30.5756 40.1301 30.3161 39.8766 30.3102 39.7645C30.3102 39.7291 30.1038 39.5699 29.8561 39.4107C29.6085 39.2515 29.2546 38.9802 29.0777 38.8151C28.8949 38.6441 28.6 38.4259 28.4231 38.3315C28.2403 38.2313 28.0103 38.0485 27.9042 37.9187C27.7862 37.7772 27.5799 37.618 27.3499 37.5118C27.1435 37.4175 26.8486 37.217 26.6953 37.0695C26.4948 36.8808 26.2707 36.7452 25.9464 36.6214C25.6869 36.5211 25.4569 36.4386 25.4274 36.4386C25.3979 36.4386 25.2505 36.3324 25.1031 36.2027C24.82 35.955 24.5016 35.7899 24.2067 35.7486C24.1124 35.7368 23.847 35.6896 23.617 35.6424C22.7501 35.4714 22.756 35.4714 21.9363 35.4066C21.6592 35.383 21.3584 35.3535 21.2582 35.3358C21.1638 35.3181 21.0164 35.2945 20.9338 35.2886C20.8513 35.2768 20.7215 35.2532 20.639 35.2296C20.5564 35.212 20.3854 35.1825 20.2557 35.1707C20.1259 35.1589 20.0198 35.1471 20.0198 35.1412C20.0198 35.1235 19.7544 35.0881 19.3416 35.0527C19.0998 35.0291 18.805 35.0056 18.6929 34.9938C18.5809 34.982 18.1976 34.9525 17.8379 34.9348C17.484 34.9171 17.1243 34.8876 17.0417 34.8699C16.9179 34.8463 14.4293 34.7815 13.0612 34.7697C12.2592 34.7579 11.3805 34.9289 11.3805 35.0881C11.3805 35.1176 11.3569 35.1353 11.3334 35.1235C11.3039 35.1176 11.127 35.2532 10.9324 35.4243C10.7437 35.5953 10.4665 35.8194 10.3191 35.9255C10.1245 36.067 10.0006 36.2322 9.84139 36.5565C9.71756 36.7983 9.6291 37.0047 9.64089 37.0165C9.65269 37.0283 9.6232 37.1285 9.57603 37.2406C9.52885 37.3526 9.50526 37.4411 9.51705 37.4411C9.53475 37.4411 9.50526 37.5354 9.45808 37.6475C9.41091 37.7654 9.38732 37.8833 9.40501 37.9187C9.4286 37.9482 9.40501 37.9895 9.35194 38.0072C9.30476 38.0249 9.27527 38.0897 9.28707 38.1546C9.29886 38.2136 9.28707 38.2667 9.26348 38.2667C9.23989 38.2667 9.2163 38.302 9.2163 38.3374C9.21041 38.4259 9.13964 38.9448 9.10426 39.1217C8.98632 39.735 8.96273 40.9144 9.06298 41.2565C9.09836 41.3862 9.11605 41.5101 9.10426 41.5277C9.08657 41.5395 9.19861 41.6811 9.34604 41.8403C9.49347 41.9995 9.67038 42.2354 9.73525 42.3651C9.90626 42.6954 10.0124 42.8015 10.3426 42.9666C10.5078 43.0492 10.7378 43.2202 10.8616 43.3441C10.9913 43.4738 11.1859 43.6153 11.3039 43.6625C11.5103 43.751 11.5928 43.7686 12.0528 43.8394C12.1766 43.863 12.33 43.8925 12.3889 43.9043C12.4538 43.9161 12.5541 43.9397 12.6248 43.9574C12.6897 43.9691 12.7899 43.9927 12.843 44.0104C12.8961 44.0281 13.0258 44.0576 13.1202 44.0753C13.3089 44.1166 13.4563 44.1461 13.5035 44.1637C13.5212 44.1696 13.5507 44.1755 13.5802 44.1696C13.6037 44.1696 13.6214 44.1932 13.6214 44.2286C13.6214 44.2581 13.645 44.2758 13.6745 44.2522C13.704 44.2345 13.7453 44.2463 13.7689 44.2817C13.7924 44.3171 13.8337 44.3289 13.8632 44.3112C13.8927 44.2876 13.9163 44.3053 13.9163 44.3407C13.9163 44.376 13.9399 44.3937 13.9694 44.376C13.9988 44.3525 14.0342 44.3701 14.046 44.4114C14.0578 44.4468 14.1227 44.4881 14.1876 44.494C14.2465 44.5058 14.4352 44.5412 14.5945 44.5765C14.7596 44.6119 14.9542 44.6591 15.0367 44.6709C15.1193 44.6886 15.2903 44.724 15.42 44.7476C15.5498 44.777 15.6972 44.8006 15.7444 44.8006C16.0098 44.8006 17.0594 45.066 17.0123 45.125C16.9946 45.1486 17.0005 45.1545 17.0182 45.1368C17.0417 45.125 17.142 45.1486 17.2422 45.1898C17.3425 45.2311 17.4427 45.2724 17.4722 45.2724C17.4958 45.2783 17.5194 45.2842 17.5312 45.2901C17.5843 45.3078 17.7435 45.3432 17.8968 45.3727C17.9971 45.3903 18.1091 45.4198 18.1504 45.4316C18.2507 45.467 18.6281 45.5083 19.2237 45.5496C19.4655 45.5614 19.719 45.5908 19.7898 45.6026C19.8547 45.6144 20.2262 45.6439 20.6154 45.6675C21.9068 45.7324 22.2607 45.7619 22.4376 45.7972C22.5378 45.8149 22.6499 45.8326 22.6912 45.8326C22.7265 45.8326 22.7619 45.8562 22.7619 45.8857C22.7619 45.9093 22.7796 45.927 22.8091 45.9211C22.8327 45.9093 22.9978 45.9742 23.1747 46.0626C23.558 46.2454 24.2952 46.5285 24.2952 46.4872C24.2952 46.4754 24.3895 46.499 24.5016 46.5462C24.6195 46.5992 24.7257 46.6346 24.7375 46.6346C24.8377 46.6405 25.109 46.8351 25.2092 46.9649C25.2682 47.0533 25.4687 47.1949 25.6515 47.2892C26.0053 47.472 26.2058 47.6489 26.2884 47.8789C26.3415 48.0204 26.3356 48.3507 26.2825 48.5276C26.2648 48.5748 26.2353 48.6691 26.2176 48.734C26.1587 48.905 25.852 49.0878 25.4746 49.1763C25.0264 49.2824 24.5664 49.4888 24.3718 49.6775C24.189 49.8544 23.9472 49.9724 23.4991 50.1021C23.0922 50.226 22.8268 50.3675 22.5791 50.6034C22.4612 50.7095 22.184 50.8746 21.954 50.9631C21.6651 51.0751 21.4528 51.2108 21.2464 51.4172C21.0813 51.5823 20.9279 51.712 20.9102 51.712C20.8631 51.712 20.521 52.0894 20.2557 52.4492C20.1318 52.6084 20.008 52.7558 19.9844 52.7735C19.9136 52.8207 19.7721 53.1863 19.7308 53.4222C19.666 53.8468 19.5126 54.5839 19.436 54.8788C19.3888 55.0439 19.3711 55.1972 19.3888 55.2149C19.4065 55.2326 19.3829 55.2503 19.3416 55.2503C19.3003 55.2503 19.2826 55.268 19.3003 55.2857C19.318 55.3093 19.3062 55.38 19.2708 55.4508C19.2296 55.5157 19.1942 55.6159 19.1883 55.6631C19.1824 55.7103 19.1647 55.8164 19.147 55.899C19.0762 56.2056 19.0468 56.3471 19.0173 56.4887C18.9996 56.5712 18.976 56.6892 18.9642 56.754C18.9406 56.8661 18.8993 57.2199 18.8404 57.845C18.8227 57.9865 18.7991 58.2401 18.7755 58.4052C18.7578 58.5645 18.7283 58.7767 18.7224 58.877C18.6575 59.5198 18.6281 59.7793 18.6045 59.909C18.5868 59.9857 18.5632 60.1449 18.5455 60.2628C18.5278 60.3808 18.4983 60.54 18.4865 60.6166C18.4688 60.6992 18.4453 60.8289 18.4276 60.9115C18.3922 61.0825 18.3509 61.2712 18.3037 61.454C18.286 61.5307 18.2624 61.6545 18.2507 61.7371C18.2389 61.8196 18.2153 61.9435 18.1976 62.0202C18.1799 62.0909 18.1504 62.3386 18.1327 62.5627C18.115 62.7868 18.0855 63.0227 18.0737 63.0816C18.0678 63.1406 18.0384 63.347 18.0148 63.5357C17.9912 63.7303 17.9617 63.9544 17.9499 64.037C17.885 64.4262 17.9145 64.9864 18.0089 65.1279C18.2094 65.4346 18.575 65.3697 18.8463 64.9864C18.9524 64.839 19.1293 64.6915 19.3121 64.6031C19.4949 64.5146 19.7249 64.3318 19.9195 64.1018C20.0905 63.9072 20.2498 63.748 20.2734 63.7539C20.3559 63.7834 20.9692 63.3411 21.211 63.0875C21.3525 62.9401 21.612 62.7514 21.7889 62.657C21.9717 62.5686 22.184 62.3976 22.2784 62.2796C22.4848 61.9966 22.5673 61.9317 22.8504 61.802C23.0922 61.6899 23.2042 61.5897 23.4165 61.3066C23.4873 61.2181 23.6878 61.0648 23.8765 60.9705C24.0593 60.882 24.3306 60.6697 24.4839 60.5105C24.6372 60.3513 24.9085 60.1331 25.0854 60.0328C25.2623 59.9267 25.5513 59.7026 25.7223 59.5316C25.8933 59.3606 26.1704 59.1483 26.3356 59.0657C26.6068 58.9301 26.9489 58.6116 26.9489 58.4996C26.9489 58.4642 27.2909 58.2342 27.3617 58.2283C27.4855 58.2165 27.8924 57.9099 27.8924 57.8273C27.8924 57.7389 28.1519 57.5207 28.3878 57.4086C28.5175 57.3497 28.7829 57.1492 28.9834 56.9604C29.1839 56.7717 29.52 56.5123 29.7264 56.3766C29.9328 56.2469 30.2335 56.0051 30.3928 55.84C30.552 55.6749 30.7879 55.4921 30.9235 55.4331C31.0591 55.3741 31.2891 55.1972 31.4483 55.0439C31.7196 54.7726 31.7373 54.7667 32.0145 54.7903C32.1973 54.808 32.386 54.8788 32.557 54.9967C32.9344 55.2562 33.2823 55.4095 33.6598 55.4921C34.1433 55.5864 34.5974 55.7692 34.9394 55.9933C35.2225 56.182 35.9714 56.4533 36.3665 56.5064C36.4668 56.5241 36.6968 56.6184 36.8678 56.7128C37.5341 57.0961 37.7288 57.1904 37.8939 57.2199C37.9882 57.2317 38.0649 57.2494 38.0649 57.2553C38.0649 57.2612 38.1062 57.273 38.1533 57.2848C38.7784 57.4204 39.1676 57.5796 39.4507 57.7978C39.5333 57.8627 39.6866 57.9512 39.7986 57.9983C40.0109 58.0868 40.9014 58.3286 41.0311 58.3345C41.0665 58.3345 41.1019 58.3581 41.1019 58.3875C41.1019 58.4111 41.1196 58.4288 41.1491 58.4229C41.2198 58.4052 41.6326 58.6175 41.6326 58.6765C41.6326 58.706 41.6739 58.7296 41.7211 58.7296C41.7683 58.7296 41.8095 58.7532 41.8095 58.7767C41.8095 58.8298 42.4405 59.0598 42.7531 59.1129C42.8651 59.1365 42.989 59.1601 43.0184 59.166C43.0538 59.1719 43.1128 59.1954 43.1541 59.219C43.1895 59.2485 43.2248 59.2544 43.2248 59.2308C43.2248 59.1895 43.6671 59.4136 43.962 59.6141C44.2038 59.7734 44.3689 59.8441 44.8171 59.9739C45.1355 60.0623 45.2181 60.08 45.395 60.0977C45.4657 60.1036 45.5247 60.1331 45.5247 60.1626C45.5247 60.1862 45.5424 60.1979 45.5719 60.1803C45.5955 60.1685 45.7311 60.2392 45.8785 60.3336C46.7395 60.9233 47.3115 60.9882 47.5179 60.5282C47.6123 60.3218 47.6241 23.4649 47.5297 23.288C47.3764 23.005 47.0815 22.9814 46.828 23.2409Z" fill="#0282FD"/>
</svg>
